G04 Layer_Physical_Order=2*
G04 Layer_Color=16711680*
%FSLAX44Y44*%
%MOMM*%
G71*
G01*
G75*
%ADD12C,0.2000*%
%ADD15C,0.3000*%
%ADD16C,7.0000*%
%ADD17C,1.6000*%
%ADD18R,1.6000X1.6000*%
%ADD19C,0.6000*%
%ADD20O,0.7000X1.2000*%
G04:AMPARAMS|DCode=21|XSize=1.2mm|YSize=1.7mm|CornerRadius=0.12mm|HoleSize=0mm|Usage=FLASHONLY|Rotation=270.000|XOffset=0mm|YOffset=0mm|HoleType=Round|Shape=RoundedRectangle|*
%AMROUNDEDRECTD21*
21,1,1.2000,1.4600,0,0,270.0*
21,1,0.9600,1.7000,0,0,270.0*
1,1,0.2400,-0.7300,-0.4800*
1,1,0.2400,-0.7300,0.4800*
1,1,0.2400,0.7300,0.4800*
1,1,0.2400,0.7300,-0.4800*
%
%ADD21ROUNDEDRECTD21*%
G36*
X267196Y2804D02*
X73464D01*
X73316Y4304D01*
X73921Y4424D01*
X74913Y5087D01*
X81663Y11837D01*
X82326Y12829D01*
X82559Y14000D01*
X82559Y14000D01*
Y24733D01*
X87517Y29691D01*
X100250D01*
X100250Y29691D01*
X101420Y29924D01*
X102413Y30587D01*
X107163Y35337D01*
X107163Y35337D01*
X107826Y36330D01*
X108059Y37500D01*
Y166677D01*
X108059Y166678D01*
X107826Y167848D01*
X107163Y168841D01*
X64591Y211413D01*
X63598Y212076D01*
X62428Y212309D01*
X62428Y212309D01*
X30945D01*
X19809Y223445D01*
Y242941D01*
X147000D01*
X147000Y242941D01*
X148170Y243174D01*
X149163Y243837D01*
X159213Y253887D01*
X159876Y254879D01*
X160109Y256050D01*
X160109Y256050D01*
Y256915D01*
X160973Y257577D01*
X161854Y258726D01*
X162408Y260064D01*
X162597Y261500D01*
Y266500D01*
X162408Y267936D01*
X161854Y269274D01*
X160973Y270423D01*
X159824Y271304D01*
X158486Y271858D01*
X157050Y272047D01*
X155614Y271858D01*
X154276Y271304D01*
X153127Y270423D01*
X152246Y269274D01*
X151692Y267936D01*
X151503Y266500D01*
Y261500D01*
X151692Y260064D01*
X152246Y258726D01*
X153127Y257577D01*
X153196Y256522D01*
X145733Y249059D01*
X134344D01*
X133997Y249897D01*
X133861Y250559D01*
X134476Y251479D01*
X134709Y252650D01*
Y256915D01*
X135573Y257577D01*
X136454Y258726D01*
X137008Y260064D01*
X137197Y261500D01*
Y266500D01*
X137008Y267936D01*
X136454Y269274D01*
X135573Y270423D01*
X134424Y271304D01*
X133086Y271858D01*
X131650Y272047D01*
X130214Y271858D01*
X128876Y271304D01*
X127727Y270423D01*
X126846Y269274D01*
X126292Y267936D01*
X126103Y266500D01*
Y261500D01*
X126292Y260064D01*
X126846Y258726D01*
X127727Y257577D01*
X128591Y256915D01*
Y253917D01*
X127733Y253059D01*
X122430D01*
X121629Y254559D01*
X121776Y254779D01*
X122009Y255950D01*
X122009Y255950D01*
Y256915D01*
X122873Y257577D01*
X123754Y258726D01*
X124308Y260064D01*
X124497Y261500D01*
Y266500D01*
X124308Y267936D01*
X123754Y269274D01*
X122873Y270423D01*
X121724Y271304D01*
X120386Y271858D01*
X118950Y272047D01*
X117514Y271858D01*
X116176Y271304D01*
X115027Y270423D01*
X114146Y269274D01*
X113592Y267936D01*
X113403Y266500D01*
Y261500D01*
X113592Y260064D01*
X114146Y258726D01*
X114274Y258559D01*
X113535Y257059D01*
X111665D01*
X110926Y258559D01*
X111054Y258726D01*
X111608Y260064D01*
X111797Y261500D01*
Y266500D01*
X111608Y267936D01*
X111054Y269274D01*
X110173Y270423D01*
X109819Y270694D01*
Y277931D01*
X175522D01*
X178881Y274572D01*
Y270694D01*
X178527Y270423D01*
X177646Y269274D01*
X177092Y267936D01*
X176903Y266500D01*
Y261500D01*
X177092Y260064D01*
X177646Y258726D01*
X178527Y257577D01*
X179676Y256696D01*
X181014Y256142D01*
X182450Y255952D01*
X183886Y256142D01*
X185224Y256696D01*
X186373Y257577D01*
X187254Y258726D01*
X187808Y260064D01*
X187997Y261500D01*
Y266500D01*
X187808Y267936D01*
X187254Y269274D01*
X186373Y270423D01*
X186019Y270694D01*
Y276050D01*
X185747Y277416D01*
X184973Y278573D01*
X179523Y284023D01*
X178366Y284797D01*
X177000Y285069D01*
X109819D01*
Y294000D01*
X109547Y295366D01*
X108773Y296523D01*
X97523Y307773D01*
X96366Y308547D01*
X95000Y308819D01*
X20250D01*
X18884Y308547D01*
X17727Y307773D01*
X4190Y294236D01*
X2804Y294810D01*
Y407196D01*
X267196D01*
Y2804D01*
D02*
G37*
%LPC*%
G36*
X169750Y272047D02*
X168314Y271858D01*
X166976Y271304D01*
X165827Y270423D01*
X164946Y269274D01*
X164392Y267936D01*
X164203Y266500D01*
Y261500D01*
X164392Y260064D01*
X164946Y258726D01*
X165827Y257577D01*
X166691Y256915D01*
Y255250D01*
X166691Y255250D01*
X166924Y254079D01*
X167587Y253087D01*
X173837Y246837D01*
X173837Y246837D01*
X174830Y246174D01*
X176000Y245941D01*
X176000Y245941D01*
X255733D01*
X257941Y243733D01*
Y225267D01*
X244733Y212059D01*
X214250D01*
X214250Y212059D01*
X213079Y211826D01*
X212087Y211163D01*
X212087Y211163D01*
X186445Y185520D01*
X185059Y186094D01*
Y198377D01*
X185224Y198446D01*
X186373Y199327D01*
X187254Y200476D01*
X187808Y201814D01*
X187997Y203250D01*
Y208250D01*
X187808Y209686D01*
X187254Y211024D01*
X186373Y212173D01*
X185509Y212836D01*
Y214433D01*
X188017Y216941D01*
X229000D01*
X229000Y216941D01*
X230171Y217174D01*
X231163Y217837D01*
X238263Y224937D01*
X251300D01*
X252549Y225186D01*
X253607Y225893D01*
X254314Y226952D01*
X254563Y228200D01*
Y237800D01*
X254314Y239049D01*
X253607Y240107D01*
X252549Y240814D01*
X251300Y241063D01*
X236700D01*
X235451Y240814D01*
X234393Y240107D01*
X232607D01*
X231549Y240814D01*
X230300Y241063D01*
X215700D01*
X214452Y240814D01*
X213393Y240107D01*
X211607D01*
X210549Y240814D01*
X209300Y241063D01*
X194700D01*
X193451Y240814D01*
X192393Y240107D01*
X191686Y239049D01*
X191437Y237800D01*
Y236059D01*
X165000D01*
X165000Y236059D01*
X163829Y235826D01*
X162837Y235163D01*
X154887Y227213D01*
X154224Y226221D01*
X153991Y225050D01*
X153991Y225050D01*
Y212836D01*
X153127Y212173D01*
X152246Y211024D01*
X151692Y209686D01*
X151503Y208250D01*
Y203250D01*
X151692Y201814D01*
X152246Y200476D01*
X153127Y199327D01*
X153991Y198664D01*
Y95044D01*
X152605Y94470D01*
X151309Y95767D01*
Y171064D01*
X151309Y171064D01*
X151076Y172234D01*
X150413Y173227D01*
X150413Y173227D01*
X147409Y176231D01*
Y198664D01*
X148273Y199327D01*
X149154Y200476D01*
X149708Y201814D01*
X149897Y203250D01*
Y208250D01*
X149708Y209686D01*
X149154Y211024D01*
X148273Y212173D01*
X147409Y212836D01*
Y223650D01*
X147409Y223650D01*
X147176Y224820D01*
X146513Y225813D01*
X137163Y235163D01*
X136171Y235826D01*
X135000Y236059D01*
X135000Y236059D01*
X84563D01*
Y237800D01*
X84314Y239049D01*
X83607Y240107D01*
X82549Y240814D01*
X81300Y241063D01*
X66700D01*
X65451Y240814D01*
X64393Y240107D01*
X62607D01*
X61549Y240814D01*
X60300Y241063D01*
X45700D01*
X44451Y240814D01*
X43393Y240107D01*
X41607D01*
X40549Y240814D01*
X39300Y241063D01*
X24700D01*
X23451Y240814D01*
X22393Y240107D01*
X21686Y239049D01*
X21437Y237800D01*
Y228200D01*
X21686Y226952D01*
X22393Y225893D01*
X23451Y225186D01*
X24700Y224937D01*
X37737D01*
X45837Y216837D01*
X46829Y216174D01*
X48000Y215941D01*
X113733D01*
X115507Y214167D01*
X115424Y212477D01*
X115027Y212173D01*
X114146Y211024D01*
X113592Y209686D01*
X113403Y208250D01*
Y203250D01*
X113592Y201814D01*
X114146Y200476D01*
X115027Y199327D01*
X115691Y198818D01*
Y189250D01*
X115691Y189250D01*
X115924Y188079D01*
X116587Y187087D01*
X137191Y166483D01*
Y77000D01*
X137191Y77000D01*
X137424Y75830D01*
X138087Y74837D01*
X156554Y56370D01*
X156113Y55347D01*
X155788Y55015D01*
X153350Y55336D01*
X150739Y54993D01*
X149265Y54382D01*
X127319Y76328D01*
Y139371D01*
X127355Y139395D01*
X128460Y141049D01*
X128848Y143000D01*
X128460Y144951D01*
X127355Y146605D01*
X125701Y147710D01*
X123750Y148098D01*
X121799Y147710D01*
X120145Y146605D01*
X119040Y144951D01*
X118652Y143000D01*
X119040Y141049D01*
X120145Y139395D01*
X120181Y139371D01*
Y74850D01*
X120453Y73484D01*
X121227Y72327D01*
X144218Y49335D01*
X143607Y47860D01*
X143264Y45250D01*
X143607Y42639D01*
X144615Y40207D01*
X146218Y38118D01*
X148307Y36515D01*
X150739Y35507D01*
X153350Y35164D01*
X155961Y35507D01*
X158393Y36515D01*
X160482Y38118D01*
X161941Y40019D01*
X162612Y39972D01*
X163441Y39603D01*
Y34267D01*
X157945Y28771D01*
X155961Y29593D01*
X153350Y29936D01*
X150739Y29593D01*
X148307Y28585D01*
X146218Y26982D01*
X144615Y24893D01*
X143607Y22460D01*
X143264Y19850D01*
X143607Y17240D01*
X144615Y14807D01*
X146218Y12718D01*
X148307Y11115D01*
X150739Y10107D01*
X153350Y9764D01*
X155961Y10107D01*
X158393Y11115D01*
X160482Y12718D01*
X162085Y14807D01*
X163093Y17240D01*
X163436Y19850D01*
X163093Y22460D01*
X162271Y24445D01*
X168663Y30837D01*
X169326Y31830D01*
X169559Y33000D01*
X169559Y33000D01*
Y38338D01*
X171059Y38847D01*
X171618Y38118D01*
X173707Y36515D01*
X176140Y35507D01*
X178750Y35164D01*
X181360Y35507D01*
X183793Y36515D01*
X185882Y38118D01*
X186691Y39172D01*
X188191Y38663D01*
Y33617D01*
X183345Y28771D01*
X181360Y29593D01*
X178750Y29936D01*
X176140Y29593D01*
X173707Y28585D01*
X171618Y26982D01*
X170015Y24893D01*
X169007Y22460D01*
X168664Y19850D01*
X169007Y17240D01*
X170015Y14807D01*
X171618Y12718D01*
X173707Y11115D01*
X176140Y10107D01*
X178750Y9764D01*
X181360Y10107D01*
X183793Y11115D01*
X185882Y12718D01*
X187485Y14807D01*
X188493Y17240D01*
X188836Y19850D01*
X188493Y22460D01*
X187671Y24445D01*
X193413Y30187D01*
X193413Y30187D01*
X194076Y31179D01*
X194309Y32350D01*
Y39185D01*
X195809Y39694D01*
X197018Y38118D01*
X199107Y36515D01*
X201539Y35507D01*
X204150Y35164D01*
X206761Y35507D01*
X209193Y36515D01*
X211191Y38048D01*
X211800Y37942D01*
X212691Y37640D01*
Y32717D01*
X208745Y28771D01*
X206761Y29593D01*
X204150Y29936D01*
X201539Y29593D01*
X199107Y28585D01*
X197018Y26982D01*
X195415Y24893D01*
X194407Y22460D01*
X194064Y19850D01*
X194407Y17240D01*
X195415Y14807D01*
X197018Y12718D01*
X199107Y11115D01*
X201539Y10107D01*
X204150Y9764D01*
X206761Y10107D01*
X209193Y11115D01*
X211282Y12718D01*
X212885Y14807D01*
X213893Y17240D01*
X214236Y19850D01*
X213893Y22460D01*
X213071Y24445D01*
X217151Y28525D01*
X218188Y29451D01*
X219550Y29037D01*
X219550Y28522D01*
X219550Y28522D01*
X219550Y28518D01*
Y9850D01*
X239550D01*
Y25524D01*
X246913Y32887D01*
X246913Y32887D01*
X247576Y33879D01*
X247809Y35050D01*
X247809Y35050D01*
Y51750D01*
X247576Y52920D01*
X246913Y53913D01*
X241663Y59163D01*
X240671Y59826D01*
X239500Y60059D01*
X239500Y60059D01*
X226267D01*
X221836Y64489D01*
X222498Y65949D01*
X226750Y65671D01*
X231590Y65988D01*
X236347Y66934D01*
X240940Y68493D01*
X245290Y70638D01*
X249322Y73333D01*
X252969Y76531D01*
X256167Y80177D01*
X258862Y84210D01*
X261007Y88560D01*
X262566Y93153D01*
X263512Y97910D01*
X263829Y102750D01*
X263512Y107590D01*
X262566Y112347D01*
X261007Y116940D01*
X258862Y121290D01*
X256167Y125323D01*
X252969Y128969D01*
X249322Y132167D01*
X245290Y134862D01*
X240940Y137007D01*
X236347Y138566D01*
X231590Y139512D01*
X226750Y139829D01*
X221910Y139512D01*
X217153Y138566D01*
X212560Y137007D01*
X208210Y134862D01*
X204177Y132167D01*
X200531Y128969D01*
X197333Y125323D01*
X194638Y121290D01*
X192493Y116940D01*
X190934Y112347D01*
X190559Y110460D01*
X189059Y110608D01*
Y179483D01*
X215517Y205941D01*
X246000D01*
X246000Y205941D01*
X247171Y206174D01*
X248163Y206837D01*
X263163Y221837D01*
X263163Y221837D01*
X263826Y222829D01*
X264059Y224000D01*
X264059Y224000D01*
Y245000D01*
X264059Y245000D01*
X263826Y246171D01*
X263163Y247163D01*
X263163Y247163D01*
X259163Y251163D01*
X258171Y251826D01*
X257000Y252059D01*
X257000Y252059D01*
X177267D01*
X173627Y255699D01*
X173673Y257577D01*
X174554Y258726D01*
X175108Y260064D01*
X175297Y261500D01*
Y266500D01*
X175108Y267936D01*
X174554Y269274D01*
X173673Y270423D01*
X172524Y271304D01*
X171186Y271858D01*
X169750Y272047D01*
D02*
G37*
G36*
X106250Y213797D02*
X104814Y213608D01*
X103476Y213054D01*
X102327Y212173D01*
X101446Y211024D01*
X100892Y209686D01*
X100703Y208250D01*
Y203250D01*
X100892Y201814D01*
X101446Y200476D01*
X102327Y199327D01*
X103476Y198446D01*
X104814Y197892D01*
X106250Y197703D01*
X107686Y197892D01*
X109024Y198446D01*
X110173Y199327D01*
X111054Y200476D01*
X111608Y201814D01*
X111797Y203250D01*
Y208250D01*
X111608Y209686D01*
X111054Y211024D01*
X110173Y212173D01*
X109024Y213054D01*
X107686Y213608D01*
X106250Y213797D01*
D02*
G37*
G36*
X137110Y400079D02*
X132270Y399762D01*
X127513Y398816D01*
X122920Y397257D01*
X118570Y395112D01*
X114537Y392417D01*
X110891Y389219D01*
X107693Y385573D01*
X104998Y381540D01*
X102853Y377190D01*
X101294Y372597D01*
X100348Y367840D01*
X100031Y363000D01*
X100348Y358160D01*
X101294Y353403D01*
X102853Y348810D01*
X104998Y344460D01*
X107693Y340428D01*
X110891Y336781D01*
X114537Y333583D01*
X118570Y330888D01*
X122920Y328743D01*
X127513Y327184D01*
X132270Y326238D01*
X137110Y325921D01*
X141950Y326238D01*
X146707Y327184D01*
X151300Y328743D01*
X155650Y330888D01*
X159683Y333583D01*
X163329Y336781D01*
X166527Y340428D01*
X169222Y344460D01*
X171367Y348810D01*
X172926Y353403D01*
X173872Y358160D01*
X174189Y363000D01*
X173872Y367840D01*
X172926Y372597D01*
X171367Y377190D01*
X169222Y381540D01*
X166527Y385573D01*
X163329Y389219D01*
X159683Y392417D01*
X155650Y395112D01*
X151300Y397257D01*
X146707Y398816D01*
X141950Y399762D01*
X137110Y400079D01*
D02*
G37*
G36*
X215000Y300848D02*
X213049Y300460D01*
X211395Y299355D01*
X210290Y297701D01*
X209902Y295750D01*
X210072Y294897D01*
X199837Y284663D01*
X199174Y283671D01*
X198941Y282500D01*
X198941Y282500D01*
Y271563D01*
X194700D01*
X193451Y271314D01*
X192393Y270607D01*
X191686Y269549D01*
X191437Y268300D01*
Y258700D01*
X191686Y257451D01*
X192393Y256393D01*
X193451Y255686D01*
X194700Y255437D01*
X209300D01*
X210549Y255686D01*
X211607Y256393D01*
X213393D01*
X214452Y255686D01*
X215700Y255437D01*
X230300D01*
X231549Y255686D01*
X232607Y256393D01*
X234393D01*
X235451Y255686D01*
X236700Y255437D01*
X251300D01*
X252549Y255686D01*
X253607Y256393D01*
X254314Y257451D01*
X254563Y258700D01*
Y268300D01*
X254314Y269549D01*
X253607Y270607D01*
X252549Y271314D01*
X251300Y271563D01*
X247059D01*
Y284500D01*
X247059Y284500D01*
X246826Y285671D01*
X246163Y286663D01*
X237970Y294856D01*
X238098Y295500D01*
X237710Y297451D01*
X236605Y299105D01*
X234951Y300210D01*
X233000Y300598D01*
X231049Y300210D01*
X229395Y299105D01*
X228902Y298367D01*
X227098D01*
X226605Y299105D01*
X224951Y300210D01*
X223000Y300598D01*
X221049Y300210D01*
X220211Y299650D01*
X218787Y299388D01*
X218020Y299746D01*
X216951Y300460D01*
X215000Y300848D01*
D02*
G37*
%LPD*%
D12*
X75000Y263500D02*
Y295250D01*
X202000Y282500D02*
X215250Y295750D01*
X72750Y7250D02*
X79500Y14000D01*
X53900Y7250D02*
X72750D01*
X41300Y19850D02*
X53900Y7250D01*
X105000Y37500D02*
Y166678D01*
X29678Y209250D02*
X62428D01*
X92000Y64000D02*
Y174021D01*
X28021Y205250D02*
X60771D01*
X88000Y66550D02*
Y172364D01*
X26364Y201250D02*
X59114D01*
X88000Y172364D01*
X60771Y205250D02*
X92000Y174021D01*
X62428Y209250D02*
X105000Y166678D01*
X16750Y222178D02*
X29678Y209250D01*
X12750Y220521D02*
X28021Y205250D01*
X8750Y218864D02*
X26364Y201250D01*
X16750Y222178D02*
Y244250D01*
X12750Y220521D02*
Y245907D01*
X8750Y218864D02*
Y247564D01*
X15186Y254000D02*
X117000D01*
X16843Y250000D02*
X129000D01*
X12750Y245907D02*
X16843Y250000D01*
X8750Y247564D02*
X15186Y254000D01*
X18500Y246000D02*
X147000D01*
X16750Y244250D02*
X18500Y246000D01*
X118750Y204050D02*
X120200Y205500D01*
X132000Y181657D02*
Y206100D01*
X144350Y174964D02*
Y205750D01*
Y174964D02*
X148250Y171064D01*
Y94500D02*
Y171064D01*
Y94500D02*
X191250Y51500D01*
X144250Y79750D02*
X178750Y45250D01*
X144250Y79750D02*
Y169407D01*
X132000Y181657D02*
X144250Y169407D01*
X118750Y189250D02*
Y204050D01*
Y189250D02*
X140250Y167750D01*
Y77000D02*
Y167750D01*
Y77000D02*
X166500Y50750D01*
X47000Y264250D02*
Y295250D01*
X202000Y263500D02*
Y282500D01*
X32000Y263500D02*
Y295250D01*
X244000Y263500D02*
Y284500D01*
X233000Y295500D02*
X244000Y284500D01*
X223000Y263500D02*
Y295500D01*
X79500Y14000D02*
Y26000D01*
X100250Y32750D02*
X105000Y37500D01*
X86250Y32750D02*
X100250D01*
X79500Y26000D02*
X86250Y32750D01*
X118950Y255950D02*
Y264000D01*
X117000Y254000D02*
X118950Y255950D01*
X131650Y252650D02*
Y264000D01*
X129000Y250000D02*
X131650Y252650D01*
X80000Y52000D02*
X92000Y64000D01*
X80000Y33150D02*
Y52000D01*
X66700Y45250D02*
X88000Y66550D01*
X157050Y256050D02*
Y264000D01*
X147000Y246000D02*
X157050Y256050D01*
X66700Y19850D02*
X80000Y33150D01*
X244000Y233000D02*
X247000D01*
X242000D02*
X244000D01*
X229000Y220000D02*
X242000Y233000D01*
X186750Y220000D02*
X229000D01*
X223000Y233000D02*
X226000D01*
X220750D02*
X223000D01*
X211750Y224000D02*
X220750Y233000D01*
X173750Y224000D02*
X211750D01*
X53000Y233000D02*
X55250D01*
X50000D02*
X53000D01*
X65250Y223000D02*
X127000D01*
X55250Y233000D02*
X65250Y223000D01*
X32000Y233000D02*
X34000D01*
X29000D02*
X32000D01*
X48000Y219000D02*
X115000D01*
X34000Y233000D02*
X48000Y219000D01*
X202000Y233000D02*
X205000D01*
X165000D02*
X202000D01*
X74000D02*
X135000D01*
X71000D02*
X74000D01*
X157050Y92350D02*
Y205750D01*
Y92350D02*
X204150Y45250D01*
X169750Y94696D02*
X208196Y56250D01*
X169750Y94696D02*
Y205750D01*
X182000Y88103D02*
X209853Y60250D01*
X182000Y88103D02*
Y205300D01*
X186000Y89760D02*
Y180750D01*
Y89760D02*
X211510Y64250D01*
X217750D01*
X225000Y57000D01*
X239500D01*
X244750Y51750D01*
X214550Y60250D02*
X229550Y45250D01*
X209853Y60250D02*
X214550D01*
X215750Y31450D02*
Y53393D01*
X212893Y56250D02*
X215750Y53393D01*
X208196Y56250D02*
X212893D01*
X182000Y205300D02*
X182450Y205750D01*
X186000Y180750D02*
X214250Y209000D01*
X246000D01*
X261000Y224000D01*
Y245000D01*
X257000Y249000D02*
X261000Y245000D01*
X176000Y249000D02*
X257000D01*
X169750Y255250D02*
X176000Y249000D01*
X169750Y255250D02*
Y264000D01*
Y220000D02*
X173750Y224000D01*
X182450Y205750D02*
Y215700D01*
X186750Y220000D01*
X169750Y205750D02*
Y220000D01*
X157050Y205750D02*
Y225050D01*
X165000Y233000D01*
X144350Y205750D02*
Y223650D01*
X135000Y233000D02*
X144350Y223650D01*
X131650Y205750D02*
X132000Y206100D01*
Y218000D01*
X127000Y223000D02*
X132000Y218000D01*
X118950Y205750D02*
Y215050D01*
X115000Y219000D02*
X118950Y215050D01*
X244750Y35050D02*
Y51750D01*
X229550Y19850D02*
X244750Y35050D01*
X153350Y19850D02*
X166500Y33000D01*
Y50750D01*
X191250Y32350D02*
Y51500D01*
X178750Y19850D02*
X191250Y32350D01*
X204150Y19850D02*
X215750Y31450D01*
D15*
X81250Y85200D02*
Y172750D01*
X57250Y196750D02*
X81250Y172750D01*
X24500Y196750D02*
X57250D01*
X4250Y217000D02*
X24500Y196750D01*
X4250Y217000D02*
Y289250D01*
X20250Y305250D01*
X123750Y74850D02*
X153350Y45250D01*
X123750Y74850D02*
Y143000D01*
X95000Y305250D02*
X106250Y294000D01*
X20250Y305250D02*
X95000D01*
X106250Y281500D02*
Y294000D01*
Y264000D02*
Y281500D01*
X177000D01*
X182450Y276050D01*
Y264000D02*
Y276050D01*
X41300Y45250D02*
X81250Y85200D01*
X98000Y63000D02*
Y143000D01*
X92100Y57100D02*
X98000Y63000D01*
X92100Y45250D02*
Y57100D01*
D16*
X226750Y102750D02*
D03*
X41000D02*
D03*
X137110Y363000D02*
D03*
D17*
X117500Y19850D02*
D03*
Y45250D02*
D03*
X92100D02*
D03*
Y19850D02*
D03*
X66700Y45250D02*
D03*
Y19850D02*
D03*
X41300D02*
D03*
X153350Y45250D02*
D03*
Y19850D02*
D03*
X178750D02*
D03*
Y45250D02*
D03*
X204150Y19850D02*
D03*
Y45250D02*
D03*
X229550D02*
D03*
D18*
X41300D02*
D03*
X229550Y19850D02*
D03*
D19*
X260001Y390001D02*
D03*
Y330000D02*
D03*
Y310000D02*
D03*
Y290000D02*
D03*
Y210000D02*
D03*
Y190000D02*
D03*
Y170000D02*
D03*
Y130000D02*
D03*
Y70000D02*
D03*
Y50000D02*
D03*
Y30000D02*
D03*
Y10000D02*
D03*
X255001Y400001D02*
D03*
X250001Y390001D02*
D03*
X255001Y380001D02*
D03*
Y340000D02*
D03*
Y320000D02*
D03*
Y300000D02*
D03*
Y200000D02*
D03*
Y180000D02*
D03*
X250001Y70000D02*
D03*
X255001Y60000D02*
D03*
Y40000D02*
D03*
X250001Y30000D02*
D03*
X255001Y20000D02*
D03*
X250001Y10000D02*
D03*
X245001Y400001D02*
D03*
X240001Y390001D02*
D03*
X245001Y380001D02*
D03*
X240001Y190000D02*
D03*
Y170000D02*
D03*
X245001Y60000D02*
D03*
Y20000D02*
D03*
X235001Y400001D02*
D03*
X225001D02*
D03*
X215001D02*
D03*
X205001D02*
D03*
X195001D02*
D03*
X190001Y10000D02*
D03*
X185001Y400001D02*
D03*
X180001Y390001D02*
D03*
X175001Y400001D02*
D03*
X170001Y390001D02*
D03*
X175001Y380001D02*
D03*
X170001Y10000D02*
D03*
X165001Y400001D02*
D03*
X155001D02*
D03*
X140001Y30000D02*
D03*
Y10000D02*
D03*
X130001Y50000D02*
D03*
X135001Y40000D02*
D03*
X130001Y30000D02*
D03*
X135001Y20000D02*
D03*
X130001Y10000D02*
D03*
X125001Y60000D02*
D03*
X115001Y400001D02*
D03*
Y100000D02*
D03*
Y60000D02*
D03*
X110001Y30000D02*
D03*
Y10000D02*
D03*
X105001Y400001D02*
D03*
X100001Y390001D02*
D03*
X105001Y20000D02*
D03*
X100001Y10000D02*
D03*
X95001Y400001D02*
D03*
X90001Y390001D02*
D03*
X95001Y380001D02*
D03*
Y360000D02*
D03*
X85001Y400001D02*
D03*
X80001Y390001D02*
D03*
X75001Y400001D02*
D03*
X70001Y390001D02*
D03*
X65001Y400001D02*
D03*
X60001Y390001D02*
D03*
X55001Y400001D02*
D03*
X50001Y390001D02*
D03*
X45001Y400001D02*
D03*
X40001Y390001D02*
D03*
X35001Y400001D02*
D03*
X30001Y390001D02*
D03*
X35001Y380001D02*
D03*
Y220000D02*
D03*
X25001Y400001D02*
D03*
X20001Y390001D02*
D03*
X25001Y380001D02*
D03*
X15001Y400001D02*
D03*
X10001Y390001D02*
D03*
X15001Y380001D02*
D03*
X10001Y330000D02*
D03*
Y310000D02*
D03*
X123750Y143000D02*
D03*
X47000Y295250D02*
D03*
X215000Y295750D02*
D03*
X75000Y295250D02*
D03*
X32000D02*
D03*
X233000Y295500D02*
D03*
X223000D02*
D03*
X98000Y143000D02*
D03*
D20*
X182450Y205750D02*
D03*
X169750D02*
D03*
X157050D02*
D03*
X144350D02*
D03*
X131650D02*
D03*
X118950D02*
D03*
X106250D02*
D03*
X93550D02*
D03*
X182450Y264000D02*
D03*
X169750D02*
D03*
X157050D02*
D03*
X144350D02*
D03*
X131650D02*
D03*
X118950D02*
D03*
X106250D02*
D03*
X93550D02*
D03*
D21*
X244000Y233000D02*
D03*
Y263500D02*
D03*
X223000Y233000D02*
D03*
Y263500D02*
D03*
X202000Y233000D02*
D03*
Y263500D02*
D03*
X32000Y233000D02*
D03*
Y263500D02*
D03*
X53000Y233000D02*
D03*
Y263500D02*
D03*
X74000Y233000D02*
D03*
Y263500D02*
D03*
M02*
