M48
;Layer_Color=9474304
;FILE_FORMAT=4:4
METRIC,LZ
;TYPE=PLATED
T1F00S00C0.3000
T2F00S00C1.0000
T3F00S00C3.1000
%
T01
X00170001Y0001
X00190001
X00250001
X00260001
X00255001Y0002
X00245001
X00250001Y0003
X00260001
X00255001Y0004
X00260001Y0005
X00255001Y0006
X00245001
X00250001Y0007
X00260001
Y0013
X0012375Y00143
X00098
X00115001Y001
Y0006
X00125001
X00130001Y0005
X00135001Y0004
X00130001Y0003
X00140001
X00135001Y0002
X00130001Y0001
X00140001
X00110001
X00100001
X00105001Y0002
X00110001Y0003
X00035001Y0022
X00032Y0029525
X00047Y0029525
X00075Y0029525
X00010001Y0031
Y0033
X00015001Y00380001
X00025001
X00035001
X00030001Y00390001
X00040001
X00050001
X00060001
X00070001
X00080001
X00090001
X00100001
X00105001Y00400001
X00115001
X00095001
X00085001
X00075001
X00065001
X00055001
X00045001
X00035001
X00025001
X00015001
X00010001Y00390001
X00020001
X00095001Y00380001
Y0036
X00155001Y00400001
X00165001
X00175001
X00185001
X00195001
X00205001
X00215001
X00225001
X00235001
X00245001
X00255001
X00250001Y00390001
X00260001
X00255001Y00380001
X00245001
X00240001Y00390001
X00180001
X00170001
X00175001Y00380001
X00255001Y0034
X00260001Y0033
X00255001Y0032
X00260001Y0031
X00255001Y003
X00260001Y0029
X00233Y002955
X00223
X00215Y0029575
X00260001Y0021
X00255001Y002
X00260001Y0019
X00255001Y0018
X00260001Y0017
X00240001
Y0019
T02
X0017875Y0001985
Y0004525
X0020415
Y0001985
X0022955
Y0004525
X0015335
Y0001985
X001175
Y0004525
X000921
Y0001985
X000667
Y0004525
X000413
Y0001985
T03
X0022675Y0010275
X00041
X0013711Y00363
M30
