G04 Layer_Color=32896*
%FSLAX44Y44*%
%MOMM*%
G71*
G01*
G75*
%ADD12C,0.2000*%
%ADD29C,0.6000*%
%ADD30C,0.1500*%
D12*
X26650Y5550D02*
Y52050D01*
X34150Y59550D01*
X132150D01*
X26650Y5550D02*
X132150D01*
Y59550D01*
X244200Y13050D02*
Y59550D01*
X236700Y5550D02*
X244200Y13050D01*
X138700Y5550D02*
X236700D01*
X138700Y59550D02*
X244200D01*
X138700Y5550D02*
Y59550D01*
X57997Y275000D02*
X48000D01*
Y279998D01*
X49666Y281665D01*
X56331D01*
X57997Y279998D01*
Y275000D01*
X48000Y291661D02*
Y284997D01*
X54665Y291661D01*
X56331D01*
X57997Y289995D01*
Y286663D01*
X56331Y284997D01*
X248997Y275000D02*
X239000D01*
Y279998D01*
X240666Y281665D01*
X247331D01*
X248997Y279998D01*
Y275000D01*
X247331Y284997D02*
X248997Y286663D01*
Y289995D01*
X247331Y291661D01*
X245665D01*
X243998Y289995D01*
Y288329D01*
Y289995D01*
X242332Y291661D01*
X240666D01*
X239000Y289995D01*
Y286663D01*
X240666Y284997D01*
X36997Y275000D02*
X27000D01*
Y279998D01*
X28666Y281665D01*
X35331D01*
X36997Y279998D01*
Y275000D01*
X27000Y289995D02*
X36997D01*
X31998Y284997D01*
Y291661D01*
X228747Y275750D02*
X218750D01*
Y280748D01*
X220416Y282414D01*
X227081D01*
X228747Y280748D01*
Y275750D01*
Y292411D02*
Y285747D01*
X223748D01*
X225415Y289079D01*
Y290745D01*
X223748Y292411D01*
X220416D01*
X218750Y290745D01*
Y287413D01*
X220416Y285747D01*
X207747Y275750D02*
X197750D01*
Y280748D01*
X199416Y282414D01*
X206081D01*
X207747Y280748D01*
Y275750D01*
Y292411D02*
X206081Y289079D01*
X202748Y285747D01*
X199416D01*
X197750Y287413D01*
Y290745D01*
X199416Y292411D01*
X201082D01*
X202748Y290745D01*
Y285747D01*
X78997Y275000D02*
X69000D01*
Y279998D01*
X70666Y281665D01*
X77331D01*
X78997Y279998D01*
Y275000D01*
Y284997D02*
Y291661D01*
X77331D01*
X70666Y284997D01*
X69000D01*
D29*
X184500Y223000D02*
G03*
X184500Y223000I-3000J0D01*
G01*
D30*
X86250Y198000D02*
Y271750D01*
X189750D01*
X86250Y198000D02*
X175500D01*
X189750D01*
Y271750D01*
X254250Y225250D02*
Y271250D01*
X233750D02*
X254250D01*
X233750Y225250D02*
Y271250D01*
Y225250D02*
X254250D01*
X233250D02*
Y271250D01*
X212750D02*
X233250D01*
X212750Y225250D02*
Y271250D01*
Y225250D02*
X233250D01*
X212250D02*
Y271250D01*
X191750D02*
X212250D01*
X191750Y225250D02*
Y271250D01*
Y225250D02*
X212250D01*
X42250D02*
Y271250D01*
X21750D02*
X42250D01*
X21750Y225250D02*
Y271250D01*
Y225250D02*
X42250D01*
X63250D02*
Y271250D01*
X42750D02*
X63250D01*
X42750Y225250D02*
Y271250D01*
Y225250D02*
X63250D01*
X84250D02*
Y271250D01*
X63750D02*
X84250D01*
X63750Y225250D02*
Y271250D01*
Y225250D02*
X84250D01*
M02*
