G04 Layer_Physical_Order=1*
G04 Layer_Color=255*
%FSLAX44Y44*%
%MOMM*%
G71*
G01*
G75*
%ADD10R,2.1000X1.4000*%
%ADD11R,1.4000X2.1000*%
%ADD12C,0.2000*%
%ADD13C,1.0000*%
%ADD14C,0.5000*%
%ADD15C,0.3000*%
%ADD16C,7.0000*%
%ADD17C,1.6000*%
%ADD18R,1.6000X1.6000*%
%ADD19C,0.6000*%
G36*
X267196Y2804D02*
X2804D01*
Y97430D01*
X4304Y97578D01*
X5184Y93153D01*
X6743Y88560D01*
X8888Y84210D01*
X11583Y80177D01*
X14781Y76531D01*
X18427Y73333D01*
X22460Y70638D01*
X26810Y68493D01*
X31403Y66934D01*
X36160Y65988D01*
X41000Y65671D01*
X45840Y65988D01*
X50597Y66934D01*
X55190Y68493D01*
X59540Y70638D01*
X63573Y73333D01*
X67219Y76531D01*
X70417Y80177D01*
X73112Y84210D01*
X75257Y88560D01*
X76816Y93153D01*
X77762Y97910D01*
X78079Y102750D01*
X77762Y107590D01*
X76816Y112347D01*
X75257Y116940D01*
X73112Y121290D01*
X70417Y125323D01*
X67219Y128969D01*
X63573Y132167D01*
X59540Y134862D01*
X55190Y137007D01*
X50597Y138566D01*
X45840Y139512D01*
X41000Y139829D01*
X36160Y139512D01*
X31403Y138566D01*
X26810Y137007D01*
X22460Y134862D01*
X18427Y132167D01*
X14781Y128969D01*
X11583Y125323D01*
X8888Y121290D01*
X6743Y116940D01*
X5184Y112347D01*
X4304Y107922D01*
X2804Y108070D01*
Y407196D01*
X267196D01*
Y2804D01*
D02*
G37*
%LPC*%
G36*
X204150Y29936D02*
X201539Y29593D01*
X199107Y28585D01*
X197018Y26982D01*
X195415Y24893D01*
X194407Y22460D01*
X194064Y19850D01*
X194407Y17240D01*
X195415Y14807D01*
X197018Y12718D01*
X199107Y11115D01*
X201539Y10107D01*
X204150Y9764D01*
X206761Y10107D01*
X209193Y11115D01*
X211282Y12718D01*
X212885Y14807D01*
X213893Y17240D01*
X214236Y19850D01*
X213893Y22460D01*
X212885Y24893D01*
X211282Y26982D01*
X209193Y28585D01*
X206761Y29593D01*
X204150Y29936D01*
D02*
G37*
G36*
X66700Y55336D02*
X64089Y54993D01*
X61657Y53985D01*
X59568Y52382D01*
X57965Y50293D01*
X56957Y47860D01*
X56614Y45250D01*
X56957Y42639D01*
X57965Y40207D01*
X59568Y38118D01*
X61657Y36515D01*
X64089Y35507D01*
X66700Y35164D01*
X69310Y35507D01*
X71743Y36515D01*
X73832Y38118D01*
X75435Y40207D01*
X76443Y42639D01*
X76786Y45250D01*
X76443Y47860D01*
X75435Y50293D01*
X73832Y52382D01*
X71743Y53985D01*
X69310Y54993D01*
X66700Y55336D01*
D02*
G37*
G36*
X239550Y29850D02*
X219550D01*
Y9850D01*
X239550D01*
Y29850D01*
D02*
G37*
G36*
X178750Y29936D02*
X176140Y29593D01*
X173707Y28585D01*
X171618Y26982D01*
X170015Y24893D01*
X169007Y22460D01*
X168664Y19850D01*
X169007Y17240D01*
X170015Y14807D01*
X171618Y12718D01*
X173707Y11115D01*
X176140Y10107D01*
X178750Y9764D01*
X181360Y10107D01*
X183793Y11115D01*
X185882Y12718D01*
X187485Y14807D01*
X188493Y17240D01*
X188836Y19850D01*
X188493Y22460D01*
X187485Y24893D01*
X185882Y26982D01*
X183793Y28585D01*
X181360Y29593D01*
X178750Y29936D01*
D02*
G37*
G36*
X41300D02*
X38689Y29593D01*
X36257Y28585D01*
X34168Y26982D01*
X32565Y24893D01*
X31557Y22460D01*
X31214Y19850D01*
X31557Y17240D01*
X32565Y14807D01*
X34168Y12718D01*
X36257Y11115D01*
X38689Y10107D01*
X41300Y9764D01*
X43910Y10107D01*
X46343Y11115D01*
X48432Y12718D01*
X50035Y14807D01*
X51043Y17240D01*
X51386Y19850D01*
X51043Y22460D01*
X50035Y24893D01*
X48432Y26982D01*
X46343Y28585D01*
X43910Y29593D01*
X41300Y29936D01*
D02*
G37*
G36*
X66700D02*
X64089Y29593D01*
X61657Y28585D01*
X59568Y26982D01*
X57965Y24893D01*
X56957Y22460D01*
X56614Y19850D01*
X56957Y17240D01*
X57965Y14807D01*
X59568Y12718D01*
X61657Y11115D01*
X64089Y10107D01*
X66700Y9764D01*
X69310Y10107D01*
X71743Y11115D01*
X73832Y12718D01*
X75435Y14807D01*
X76443Y17240D01*
X76786Y19850D01*
X76443Y22460D01*
X75435Y24893D01*
X73832Y26982D01*
X71743Y28585D01*
X69310Y29593D01*
X66700Y29936D01*
D02*
G37*
G36*
X153350D02*
X150739Y29593D01*
X148307Y28585D01*
X146218Y26982D01*
X144615Y24893D01*
X143607Y22460D01*
X143264Y19850D01*
X143607Y17240D01*
X144615Y14807D01*
X146218Y12718D01*
X148307Y11115D01*
X150739Y10107D01*
X153350Y9764D01*
X155961Y10107D01*
X158393Y11115D01*
X160482Y12718D01*
X162085Y14807D01*
X163093Y17240D01*
X163436Y19850D01*
X163093Y22460D01*
X162085Y24893D01*
X160482Y26982D01*
X158393Y28585D01*
X155961Y29593D01*
X153350Y29936D01*
D02*
G37*
G36*
X92100Y55336D02*
X89489Y54993D01*
X87057Y53985D01*
X84968Y52382D01*
X83365Y50293D01*
X82357Y47860D01*
X82014Y45250D01*
X82357Y42639D01*
X83365Y40207D01*
X84968Y38118D01*
X87057Y36515D01*
X89489Y35507D01*
X92100Y35164D01*
X94711Y35507D01*
X97143Y36515D01*
X99232Y38118D01*
X100835Y40207D01*
X101843Y42639D01*
X102186Y45250D01*
X101843Y47860D01*
X100835Y50293D01*
X99232Y52382D01*
X97143Y53985D01*
X94711Y54993D01*
X92100Y55336D01*
D02*
G37*
G36*
X51300Y55250D02*
X31300D01*
Y35250D01*
X51300D01*
Y55250D01*
D02*
G37*
G36*
X137110Y400079D02*
X132270Y399762D01*
X127513Y398816D01*
X122920Y397257D01*
X118570Y395112D01*
X114537Y392417D01*
X110891Y389219D01*
X107693Y385573D01*
X104998Y381540D01*
X102853Y377190D01*
X101294Y372597D01*
X100348Y367840D01*
X100031Y363000D01*
X100348Y358160D01*
X101294Y353403D01*
X102853Y348810D01*
X104998Y344460D01*
X107693Y340428D01*
X110891Y336781D01*
X114537Y333583D01*
X118570Y330888D01*
X122920Y328743D01*
X127513Y327184D01*
X132270Y326238D01*
X137110Y325921D01*
X141950Y326238D01*
X146707Y327184D01*
X151300Y328743D01*
X155650Y330888D01*
X159683Y333583D01*
X163329Y336781D01*
X166527Y340428D01*
X169222Y344460D01*
X171367Y348810D01*
X172926Y353403D01*
X173872Y358160D01*
X174189Y363000D01*
X173872Y367840D01*
X172926Y372597D01*
X171367Y377190D01*
X169222Y381540D01*
X166527Y385573D01*
X163329Y389219D01*
X159683Y392417D01*
X155650Y395112D01*
X151300Y397257D01*
X146707Y398816D01*
X141950Y399762D01*
X137110Y400079D01*
D02*
G37*
G36*
X228000Y387559D02*
X228000Y387559D01*
X191250D01*
X191250Y387559D01*
X190079Y387326D01*
X189087Y386663D01*
X189087Y386663D01*
X180837Y378413D01*
X180174Y377421D01*
X179941Y376250D01*
X179941Y376250D01*
Y346267D01*
X157483Y323809D01*
X115267D01*
X91559Y347517D01*
Y375500D01*
X91559Y375500D01*
X91326Y376670D01*
X90663Y377663D01*
X83913Y384413D01*
X82921Y385076D01*
X81750Y385309D01*
X81750Y385309D01*
X49000D01*
X49000Y385309D01*
X47829Y385076D01*
X46837Y384413D01*
X29837Y367413D01*
X29380Y366729D01*
X27880Y367018D01*
Y373420D01*
X9880D01*
Y348420D01*
X15311D01*
Y286420D01*
X9880D01*
Y261420D01*
X27880D01*
X28941Y260361D01*
Y257267D01*
X23494Y251820D01*
X9880D01*
Y226820D01*
X15311D01*
Y164820D01*
X9880D01*
Y139820D01*
X27880D01*
Y164820D01*
X22449D01*
Y226820D01*
X27880D01*
Y247554D01*
X34163Y253837D01*
X34163Y253837D01*
X34826Y254830D01*
X35059Y256000D01*
Y265233D01*
X53494Y283668D01*
X54880Y283094D01*
Y261420D01*
X60311D01*
Y251820D01*
X54880D01*
Y226820D01*
X60311D01*
Y218973D01*
X60181Y218320D01*
X60311Y217667D01*
Y164820D01*
X54880D01*
Y139820D01*
X66695D01*
X77750Y128765D01*
Y117250D01*
X102750D01*
Y122681D01*
X164750D01*
Y117250D01*
X185464D01*
X186038Y115864D01*
X175087Y104913D01*
X174424Y103920D01*
X174191Y102750D01*
X174191Y102750D01*
Y90250D01*
X164750D01*
Y84819D01*
X102750D01*
Y90250D01*
X77750D01*
Y72250D01*
X102750D01*
Y77681D01*
X164750D01*
Y72250D01*
X189750D01*
Y90250D01*
X180309D01*
Y101483D01*
X189048Y110222D01*
X190371Y109515D01*
X189988Y107590D01*
X189671Y102750D01*
X189988Y97910D01*
X190934Y93153D01*
X192493Y88560D01*
X194638Y84210D01*
X197333Y80177D01*
X200531Y76531D01*
X204177Y73333D01*
X208210Y70638D01*
X212560Y68493D01*
X217153Y66934D01*
X221910Y65988D01*
X226750Y65671D01*
X231590Y65988D01*
X236347Y66934D01*
X240940Y68493D01*
X245290Y70638D01*
X249322Y73333D01*
X252969Y76531D01*
X256167Y80177D01*
X258862Y84210D01*
X261007Y88560D01*
X262566Y93153D01*
X263512Y97910D01*
X263829Y102750D01*
X263512Y107590D01*
X262566Y112347D01*
X261007Y116940D01*
X258862Y121290D01*
X256167Y125323D01*
X252969Y128969D01*
X249322Y132167D01*
X245290Y134862D01*
X240940Y137007D01*
X236347Y138566D01*
X231590Y139512D01*
X226750Y139829D01*
X221910Y139512D01*
X219475Y139028D01*
X218736Y140410D01*
X235163Y156837D01*
X235826Y157830D01*
X236059Y159000D01*
Y248656D01*
X237445Y249230D01*
X239260Y247414D01*
Y226820D01*
X244692D01*
Y164820D01*
X239260D01*
Y139820D01*
X257260D01*
Y164820D01*
X251829D01*
Y226820D01*
X257260D01*
Y251820D01*
X243506D01*
X240059Y255267D01*
Y261420D01*
X257260D01*
Y286420D01*
X251829D01*
Y348420D01*
X257260D01*
Y373420D01*
X243406D01*
X230163Y386663D01*
X229170Y387326D01*
X228000Y387559D01*
D02*
G37*
G36*
X229550Y55336D02*
X226940Y54993D01*
X224507Y53985D01*
X222418Y52382D01*
X220815Y50293D01*
X219807Y47860D01*
X219464Y45250D01*
X219807Y42639D01*
X220815Y40207D01*
X222418Y38118D01*
X224507Y36515D01*
X226940Y35507D01*
X229550Y35164D01*
X232160Y35507D01*
X234593Y36515D01*
X236682Y38118D01*
X238285Y40207D01*
X239293Y42639D01*
X239636Y45250D01*
X239293Y47860D01*
X238285Y50293D01*
X236682Y52382D01*
X234593Y53985D01*
X232160Y54993D01*
X229550Y55336D01*
D02*
G37*
G36*
X153350D02*
X150739Y54993D01*
X148307Y53985D01*
X146218Y52382D01*
X144615Y50293D01*
X143607Y47860D01*
X143264Y45250D01*
X143607Y42639D01*
X144615Y40207D01*
X146218Y38118D01*
X148307Y36515D01*
X150739Y35507D01*
X153350Y35164D01*
X155961Y35507D01*
X158393Y36515D01*
X160482Y38118D01*
X162085Y40207D01*
X163093Y42639D01*
X163436Y45250D01*
X163093Y47860D01*
X162085Y50293D01*
X160482Y52382D01*
X158393Y53985D01*
X155961Y54993D01*
X153350Y55336D01*
D02*
G37*
G36*
X178750D02*
X176140Y54993D01*
X173707Y53985D01*
X171618Y52382D01*
X170015Y50293D01*
X169007Y47860D01*
X168664Y45250D01*
X169007Y42639D01*
X170015Y40207D01*
X171618Y38118D01*
X173707Y36515D01*
X176140Y35507D01*
X178750Y35164D01*
X181360Y35507D01*
X183793Y36515D01*
X185882Y38118D01*
X187485Y40207D01*
X188493Y42639D01*
X188836Y45250D01*
X188493Y47860D01*
X187485Y50293D01*
X185882Y52382D01*
X183793Y53985D01*
X181360Y54993D01*
X178750Y55336D01*
D02*
G37*
G36*
X204150D02*
X201539Y54993D01*
X199107Y53985D01*
X197018Y52382D01*
X195415Y50293D01*
X194407Y47860D01*
X194064Y45250D01*
X194407Y42639D01*
X195415Y40207D01*
X197018Y38118D01*
X199107Y36515D01*
X201539Y35507D01*
X204150Y35164D01*
X206761Y35507D01*
X209193Y36515D01*
X211282Y38118D01*
X212885Y40207D01*
X213893Y42639D01*
X214236Y45250D01*
X213893Y47860D01*
X212885Y50293D01*
X211282Y52382D01*
X209193Y53985D01*
X206761Y54993D01*
X204150Y55336D01*
D02*
G37*
%LPD*%
D10*
X90250Y310500D02*
D03*
X177250D02*
D03*
X90250Y265500D02*
D03*
X177250D02*
D03*
X90250Y218320D02*
D03*
X177250D02*
D03*
X90250Y173320D02*
D03*
X177250D02*
D03*
X90250Y126250D02*
D03*
X177250D02*
D03*
X90250Y81250D02*
D03*
X177250D02*
D03*
D11*
X203260Y152320D02*
D03*
Y239320D02*
D03*
X248260Y152320D02*
D03*
Y239320D02*
D03*
X63880Y239320D02*
D03*
Y152320D02*
D03*
X18880Y239320D02*
D03*
Y152320D02*
D03*
X203260Y273920D02*
D03*
Y360920D02*
D03*
X248260Y273920D02*
D03*
Y360920D02*
D03*
X63880Y360920D02*
D03*
Y273920D02*
D03*
X18880Y360920D02*
D03*
Y273920D02*
D03*
D12*
X74000Y295250D02*
X75000Y294250D01*
X215250Y295750D02*
Y300000D01*
X160407Y316750D02*
X187000Y343343D01*
X84500Y344593D02*
X112343Y316750D01*
X160407D01*
X158750Y320750D02*
X183000Y345000D01*
X114000Y320750D02*
X158750D01*
X88500Y346250D02*
X114000Y320750D01*
X187000Y343343D02*
Y374593D01*
X183000Y345000D02*
Y376250D01*
X187000Y374593D02*
X192907Y380500D01*
X183000Y376250D02*
X191250Y384500D01*
X216250Y380500D02*
X225000Y371750D01*
X192907Y380500D02*
X216250D01*
X228000Y384500D02*
X248260Y364240D01*
X191250Y384500D02*
X228000D01*
X248260Y360920D02*
Y364240D01*
X84500Y344593D02*
Y373843D01*
X88500Y346250D02*
Y375500D01*
X80093Y378250D02*
X84500Y373843D01*
X81750Y382250D02*
X88500Y375500D01*
X52250Y378250D02*
X80093D01*
X46250Y372250D02*
X52250Y378250D01*
X46250Y308500D02*
Y372250D01*
X49000Y382250D02*
X81750D01*
X32000Y365250D02*
X49000Y382250D01*
X32000Y295250D02*
Y365250D01*
X209000Y302500D02*
X225000Y318500D01*
X209000Y291500D02*
Y302500D01*
Y291500D02*
X211500Y289000D01*
X221000D02*
X223000Y291000D01*
X211500Y289000D02*
X221000D01*
X223000Y291000D02*
Y295500D01*
X225000Y318500D02*
Y371750D01*
X56250Y290750D02*
Y298500D01*
X46250Y308500D02*
X56250Y298500D01*
X32000Y266500D02*
X56250Y290750D01*
X32000Y256000D02*
Y266500D01*
X18880Y242880D02*
X32000Y256000D01*
X18880Y239320D02*
Y242880D01*
X47000Y289250D02*
Y295250D01*
X31670Y273920D02*
X47000Y289250D01*
X216750Y301500D02*
X238250D01*
X215250Y300000D02*
X216750Y301500D01*
X18880Y273920D02*
X31670D01*
X75000Y185750D02*
Y294250D01*
Y185750D02*
X87430Y173320D01*
X238250Y301500D02*
X240000Y299750D01*
Y291250D02*
Y299750D01*
X237000Y288250D02*
X240000Y291250D01*
X248260Y239320D02*
Y242740D01*
X237000Y254000D02*
X248260Y242740D01*
X237000Y254000D02*
Y288250D01*
X177250Y102750D02*
X191250Y116750D01*
X177250Y81250D02*
Y102750D01*
X191250Y116750D02*
Y125000D01*
X204250Y138000D01*
X212000D01*
X233000Y159000D01*
Y295500D01*
D13*
X177250Y126250D02*
X203320Y152320D01*
X63880Y152620D02*
X64180Y152320D01*
X90250Y126250D01*
X63880Y152320D02*
X64180D01*
D14*
X98250Y142750D02*
X98500Y143000D01*
X123750D01*
X98000D02*
X98250Y142750D01*
X98000Y130000D02*
Y143000D01*
D15*
X63880Y218320D02*
Y273920D01*
X203260Y152320D02*
Y239320D01*
X90250Y173320D02*
X177250D01*
X63750Y218320D02*
X63880D01*
Y152620D02*
Y218320D01*
Y152320D02*
Y152620D01*
X177250Y218320D02*
X203080D01*
X177250Y310500D02*
X203010D01*
X64130D02*
X90250D01*
X248260Y273920D02*
Y360920D01*
Y152320D02*
Y239320D01*
X90250Y81250D02*
X177250D01*
X90250Y126250D02*
X177250D01*
X90250Y218320D02*
X177250D01*
X90250Y265500D02*
X177250D01*
X203260Y273920D02*
Y360920D01*
Y239320D02*
Y273920D01*
X90250Y310500D02*
X177250D01*
X63880Y152320D02*
X63880Y152320D01*
X63880Y273920D02*
Y360920D01*
X18880Y152320D02*
Y239320D01*
X18880Y273920D02*
Y360920D01*
D16*
X226750Y102750D02*
D03*
X41000D02*
D03*
X137110Y363000D02*
D03*
D17*
X117500Y19850D02*
D03*
Y45250D02*
D03*
X92100D02*
D03*
Y19850D02*
D03*
X66700Y45250D02*
D03*
Y19850D02*
D03*
X41300D02*
D03*
X153350Y45250D02*
D03*
Y19850D02*
D03*
X178750D02*
D03*
Y45250D02*
D03*
X204150Y19850D02*
D03*
Y45250D02*
D03*
X229550D02*
D03*
D18*
X41300D02*
D03*
X229550Y19850D02*
D03*
D19*
X260001Y390001D02*
D03*
Y330000D02*
D03*
Y310000D02*
D03*
Y290000D02*
D03*
Y210000D02*
D03*
Y190000D02*
D03*
Y170000D02*
D03*
Y130000D02*
D03*
Y70000D02*
D03*
Y50000D02*
D03*
Y30000D02*
D03*
Y10000D02*
D03*
X255001Y400001D02*
D03*
X250001Y390001D02*
D03*
X255001Y380001D02*
D03*
Y340000D02*
D03*
Y320000D02*
D03*
Y300000D02*
D03*
Y200000D02*
D03*
Y180000D02*
D03*
X250001Y70000D02*
D03*
X255001Y60000D02*
D03*
Y40000D02*
D03*
X250001Y30000D02*
D03*
X255001Y20000D02*
D03*
X250001Y10000D02*
D03*
X245001Y400001D02*
D03*
X240001Y390001D02*
D03*
X245001Y380001D02*
D03*
X240001Y190000D02*
D03*
Y170000D02*
D03*
X245001Y60000D02*
D03*
Y20000D02*
D03*
X235001Y400001D02*
D03*
X225001D02*
D03*
X215001D02*
D03*
X205001D02*
D03*
X195001D02*
D03*
X190001Y10000D02*
D03*
X185001Y400001D02*
D03*
X180001Y390001D02*
D03*
X175001Y400001D02*
D03*
X170001Y390001D02*
D03*
X175001Y380001D02*
D03*
X170001Y10000D02*
D03*
X165001Y400001D02*
D03*
X155001D02*
D03*
X140001Y30000D02*
D03*
Y10000D02*
D03*
X130001Y50000D02*
D03*
X135001Y40000D02*
D03*
X130001Y30000D02*
D03*
X135001Y20000D02*
D03*
X130001Y10000D02*
D03*
X125001Y60000D02*
D03*
X115001Y400001D02*
D03*
Y100000D02*
D03*
Y60000D02*
D03*
X110001Y30000D02*
D03*
Y10000D02*
D03*
X105001Y400001D02*
D03*
X100001Y390001D02*
D03*
X105001Y20000D02*
D03*
X100001Y10000D02*
D03*
X95001Y400001D02*
D03*
X90001Y390001D02*
D03*
X95001Y380001D02*
D03*
Y360000D02*
D03*
X85001Y400001D02*
D03*
X80001Y390001D02*
D03*
X75001Y400001D02*
D03*
X70001Y390001D02*
D03*
X65001Y400001D02*
D03*
X60001Y390001D02*
D03*
X55001Y400001D02*
D03*
X50001Y390001D02*
D03*
X45001Y400001D02*
D03*
X40001Y390001D02*
D03*
X35001Y400001D02*
D03*
X30001Y390001D02*
D03*
X35001Y380001D02*
D03*
Y220000D02*
D03*
X25001Y400001D02*
D03*
X20001Y390001D02*
D03*
X25001Y380001D02*
D03*
X15001Y400001D02*
D03*
X10001Y390001D02*
D03*
X15001Y380001D02*
D03*
X10001Y330000D02*
D03*
Y310000D02*
D03*
X123750Y143000D02*
D03*
X47000Y295250D02*
D03*
X215000Y295750D02*
D03*
X75000Y295250D02*
D03*
X32000D02*
D03*
X233000Y295500D02*
D03*
X223000D02*
D03*
X98000Y143000D02*
D03*
M02*
