G04 Layer_Color=8388736*
%FSLAX44Y44*%
%MOMM*%
G71*
G01*
G75*
%ADD64C,0.9000*%
G04:AMPARAMS|DCode=94|XSize=1.15mm|YSize=1.65mm|CornerRadius=0.2mm|HoleSize=0mm|Usage=FLASHONLY|Rotation=180.000|XOffset=0mm|YOffset=0mm|HoleType=Round|Shape=RoundedRectangle|*
%AMROUNDEDRECTD94*
21,1,1.1500,1.2500,0,0,180.0*
21,1,0.7500,1.6500,0,0,180.0*
1,1,0.4000,-0.3750,0.6250*
1,1,0.4000,0.3750,0.6250*
1,1,0.4000,0.3750,-0.6250*
1,1,0.4000,-0.3750,-0.6250*
%
%ADD94ROUNDEDRECTD94*%
%ADD95R,0.8500X1.1500*%
G04:AMPARAMS|DCode=96|XSize=2.35mm|YSize=2.75mm|CornerRadius=0.405mm|HoleSize=0mm|Usage=FLASHONLY|Rotation=270.000|XOffset=0mm|YOffset=0mm|HoleType=Round|Shape=RoundedRectangle|*
%AMROUNDEDRECTD96*
21,1,2.3500,1.9400,0,0,270.0*
21,1,1.5400,2.7500,0,0,270.0*
1,1,0.8100,-0.9700,-0.7700*
1,1,0.8100,-0.9700,0.7700*
1,1,0.8100,0.9700,0.7700*
1,1,0.8100,0.9700,-0.7700*
%
%ADD96ROUNDEDRECTD96*%
G04:AMPARAMS|DCode=97|XSize=1.35mm|YSize=1.85mm|CornerRadius=0.195mm|HoleSize=0mm|Usage=FLASHONLY|Rotation=180.000|XOffset=0mm|YOffset=0mm|HoleType=Round|Shape=RoundedRectangle|*
%AMROUNDEDRECTD97*
21,1,1.3500,1.4600,0,0,180.0*
21,1,0.9600,1.8500,0,0,180.0*
1,1,0.3900,-0.4800,0.7300*
1,1,0.3900,0.4800,0.7300*
1,1,0.3900,0.4800,-0.7300*
1,1,0.3900,-0.4800,-0.7300*
%
%ADD97ROUNDEDRECTD97*%
%ADD98O,1.2500X0.7500*%
%ADD99R,1.5500X0.7500*%
%ADD100O,1.5500X0.7500*%
%ADD101R,2.5600X3.4500*%
G04:AMPARAMS|DCode=102|XSize=1.35mm|YSize=1.85mm|CornerRadius=0.195mm|HoleSize=0mm|Usage=FLASHONLY|Rotation=90.000|XOffset=0mm|YOffset=0mm|HoleType=Round|Shape=RoundedRectangle|*
%AMROUNDEDRECTD102*
21,1,1.3500,1.4600,0,0,90.0*
21,1,0.9600,1.8500,0,0,90.0*
1,1,0.3900,0.7300,0.4800*
1,1,0.3900,0.7300,-0.4800*
1,1,0.3900,-0.7300,-0.4800*
1,1,0.3900,-0.7300,0.4800*
%
%ADD102ROUNDEDRECTD102*%
%ADD103R,1.1500X0.8500*%
%ADD104R,1.9500X2.1500*%
%ADD105R,2.1500X4.6500*%
G04:AMPARAMS|DCode=106|XSize=1.15mm|YSize=1.65mm|CornerRadius=0.2mm|HoleSize=0mm|Usage=FLASHONLY|Rotation=270.000|XOffset=0mm|YOffset=0mm|HoleType=Round|Shape=RoundedRectangle|*
%AMROUNDEDRECTD106*
21,1,1.1500,1.2500,0,0,270.0*
21,1,0.7500,1.6500,0,0,270.0*
1,1,0.4000,-0.6250,-0.3750*
1,1,0.4000,-0.6250,0.3750*
1,1,0.4000,0.6250,0.3750*
1,1,0.4000,0.6250,-0.3750*
%
%ADD106ROUNDEDRECTD106*%
G04:AMPARAMS|DCode=107|XSize=2.45mm|YSize=2.95mm|CornerRadius=0.42mm|HoleSize=0mm|Usage=FLASHONLY|Rotation=180.000|XOffset=0mm|YOffset=0mm|HoleType=Round|Shape=RoundedRectangle|*
%AMROUNDEDRECTD107*
21,1,2.4500,2.1100,0,0,180.0*
21,1,1.6100,2.9500,0,0,180.0*
1,1,0.8400,-0.8050,1.0550*
1,1,0.8400,0.8050,1.0550*
1,1,0.8400,0.8050,-1.0550*
1,1,0.8400,-0.8050,-1.0550*
%
%ADD107ROUNDEDRECTD107*%
G04:AMPARAMS|DCode=108|XSize=0.75mm|YSize=1.15mm|CornerRadius=0.18mm|HoleSize=0mm|Usage=FLASHONLY|Rotation=90.000|XOffset=0mm|YOffset=0mm|HoleType=Round|Shape=RoundedRectangle|*
%AMROUNDEDRECTD108*
21,1,0.7500,0.7900,0,0,90.0*
21,1,0.3900,1.1500,0,0,90.0*
1,1,0.3600,0.3950,0.1950*
1,1,0.3600,0.3950,-0.1950*
1,1,0.3600,-0.3950,-0.1950*
1,1,0.3600,-0.3950,0.1950*
%
%ADD108ROUNDEDRECTD108*%
G04:AMPARAMS|DCode=109|XSize=2.35mm|YSize=2.75mm|CornerRadius=0.405mm|HoleSize=0mm|Usage=FLASHONLY|Rotation=180.000|XOffset=0mm|YOffset=0mm|HoleType=Round|Shape=RoundedRectangle|*
%AMROUNDEDRECTD109*
21,1,2.3500,1.9400,0,0,180.0*
21,1,1.5400,2.7500,0,0,180.0*
1,1,0.8100,-0.7700,0.9700*
1,1,0.8100,0.7700,0.9700*
1,1,0.8100,0.7700,-0.9700*
1,1,0.8100,-0.7700,-0.9700*
%
%ADD109ROUNDEDRECTD109*%
%ADD110O,0.8500X1.8500*%
%ADD111R,0.8500X1.8500*%
%ADD112O,1.3500X0.8500*%
%ADD113R,1.8500X2.3500*%
%ADD114R,1.8500X3.7500*%
%ADD115R,1.8500X2.6500*%
%ADD116R,1.8500X3.1500*%
%ADD117R,1.8500X3.5500*%
%ADD118R,1.7500X1.9500*%
%ADD119R,0.9500X2.1500*%
%ADD120R,3.1500X0.6500*%
%ADD121R,2.6500X3.1500*%
G04:AMPARAMS|DCode=122|XSize=0.75mm|YSize=1.15mm|CornerRadius=0.18mm|HoleSize=0mm|Usage=FLASHONLY|Rotation=0.000|XOffset=0mm|YOffset=0mm|HoleType=Round|Shape=RoundedRectangle|*
%AMROUNDEDRECTD122*
21,1,0.7500,0.7900,0,0,0.0*
21,1,0.3900,1.1500,0,0,0.0*
1,1,0.3600,0.1950,-0.3950*
1,1,0.3600,-0.1950,-0.3950*
1,1,0.3600,-0.1950,0.3950*
1,1,0.3600,0.1950,0.3950*
%
%ADD122ROUNDEDRECTD122*%
%ADD123R,1.7500X1.7500*%
%ADD124C,1.7500*%
%ADD125R,1.7500X1.7500*%
%ADD126O,2.1500X4.1500*%
%ADD127C,1.6500*%
%ADD128C,7.1500*%
D64*
X47000Y392000D02*
D03*
Y348000D02*
D03*
D94*
X178500Y90500D02*
D03*
X157500D02*
D03*
X150000Y24750D02*
D03*
X129000D02*
D03*
X111000D02*
D03*
X90000D02*
D03*
X9500Y239750D02*
D03*
X30500D02*
D03*
X9500Y181000D02*
D03*
X30500D02*
D03*
X55000Y208250D02*
D03*
X76000D02*
D03*
X187500Y24750D02*
D03*
X166500D02*
D03*
X238250Y310000D02*
D03*
X217250D02*
D03*
D95*
X8750Y200250D02*
D03*
X27750D02*
D03*
X18250Y224250D02*
D03*
X167000Y43750D02*
D03*
X186000D02*
D03*
X176500Y67750D02*
D03*
X274300Y129500D02*
D03*
X293300D02*
D03*
X283800Y153500D02*
D03*
D96*
X123000Y223250D02*
D03*
Y175250D02*
D03*
X168500Y163500D02*
D03*
Y115500D02*
D03*
X123500Y306500D02*
D03*
Y258500D02*
D03*
D97*
X182000Y225750D02*
D03*
X151500D02*
D03*
X199750Y309000D02*
D03*
X169250D02*
D03*
X387750D02*
D03*
X357250D02*
D03*
X393750Y261750D02*
D03*
X363250D02*
D03*
X387750Y285250D02*
D03*
X357250D02*
D03*
X421550Y199750D02*
D03*
X452050D02*
D03*
D98*
X177000Y186500D02*
D03*
Y205500D02*
D03*
X151000Y186500D02*
D03*
Y196000D02*
D03*
Y205500D02*
D03*
D99*
X94000Y297500D02*
D03*
Y284800D02*
D03*
Y272100D02*
D03*
Y259400D02*
D03*
X35000D02*
D03*
Y272100D02*
D03*
Y284800D02*
D03*
D100*
Y297500D02*
D03*
D101*
X64500Y278450D02*
D03*
D102*
X199500Y138000D02*
D03*
Y168500D02*
D03*
X13000Y297500D02*
D03*
Y267000D02*
D03*
D103*
X71500Y188750D02*
D03*
Y169750D02*
D03*
X95500Y179250D02*
D03*
D104*
X94500Y91250D02*
D03*
X136500D02*
D03*
D105*
X136000Y134250D02*
D03*
X106000D02*
D03*
D106*
X52500Y189250D02*
D03*
Y168250D02*
D03*
X198500Y99500D02*
D03*
Y120500D02*
D03*
X259750Y54500D02*
D03*
Y75500D02*
D03*
Y113000D02*
D03*
Y92000D02*
D03*
X671000Y265250D02*
D03*
Y244250D02*
D03*
X649500D02*
D03*
Y265250D02*
D03*
X671000Y206750D02*
D03*
Y227750D02*
D03*
X649500Y227750D02*
D03*
Y206750D02*
D03*
Y281750D02*
D03*
Y302750D02*
D03*
X671000D02*
D03*
Y281750D02*
D03*
D107*
X78000Y135250D02*
D03*
X16000D02*
D03*
X758500Y286250D02*
D03*
X696500D02*
D03*
X758500Y226750D02*
D03*
X696500D02*
D03*
D108*
X199500Y215250D02*
D03*
Y231250D02*
D03*
D109*
X205000Y256750D02*
D03*
X157000D02*
D03*
X880750Y100000D02*
D03*
X832750D02*
D03*
X880750Y410750D02*
D03*
X832750D02*
D03*
X96000Y54750D02*
D03*
X144000D02*
D03*
X333750Y301500D02*
D03*
X285750D02*
D03*
D110*
X279950Y43500D02*
D03*
D111*
X292650D02*
D03*
Y109500D02*
D03*
X279950D02*
D03*
D112*
X484500Y302250D02*
D03*
Y289550D02*
D03*
Y276850D02*
D03*
Y264150D02*
D03*
Y251450D02*
D03*
Y238750D02*
D03*
Y226050D02*
D03*
Y213350D02*
D03*
X542750Y302250D02*
D03*
Y289550D02*
D03*
Y276850D02*
D03*
Y264150D02*
D03*
Y251450D02*
D03*
Y238750D02*
D03*
Y226050D02*
D03*
Y213350D02*
D03*
D113*
X251750Y494500D02*
D03*
X102250Y484500D02*
D03*
X432750Y494500D02*
D03*
X283250Y484500D02*
D03*
D114*
X258250Y446500D02*
D03*
X439250D02*
D03*
D115*
X102250Y437000D02*
D03*
X283250D02*
D03*
D116*
X102250Y361000D02*
D03*
X283250D02*
D03*
D117*
X258250Y351000D02*
D03*
X439250D02*
D03*
D118*
X223150Y338000D02*
D03*
X404150D02*
D03*
D119*
X202250Y334000D02*
D03*
X191250D02*
D03*
X180250D02*
D03*
X169250D02*
D03*
X158250D02*
D03*
X147250D02*
D03*
X136250D02*
D03*
X125250D02*
D03*
X383250D02*
D03*
X372250D02*
D03*
X361250D02*
D03*
X350250D02*
D03*
X339250D02*
D03*
X328250D02*
D03*
X317250D02*
D03*
X306250D02*
D03*
D120*
X72000Y386000D02*
D03*
Y378000D02*
D03*
Y370000D02*
D03*
Y362000D02*
D03*
Y354000D02*
D03*
D121*
Y415000D02*
D03*
X17000D02*
D03*
Y325000D02*
D03*
X72000D02*
D03*
D122*
X632500Y302750D02*
D03*
X616500D02*
D03*
D123*
X17350Y95000D02*
D03*
X88200Y234750D02*
D03*
X287600Y257750D02*
D03*
Y219000D02*
D03*
X286000Y16000D02*
D03*
X248950Y221950D02*
D03*
D124*
X42750Y95000D02*
D03*
X62800Y234750D02*
D03*
X313000Y257750D02*
D03*
X338400D02*
D03*
X313000Y219000D02*
D03*
X338400D02*
D03*
X260600Y16000D02*
D03*
X223550Y221950D02*
D03*
Y196550D02*
D03*
X248950D02*
D03*
X211500Y55400D02*
D03*
X568100Y294750D02*
D03*
X593500D02*
D03*
Y269350D02*
D03*
X568100D02*
D03*
X593500Y243950D02*
D03*
X568100D02*
D03*
Y218550D02*
D03*
X428350Y228050D02*
D03*
Y253450D02*
D03*
X453750D02*
D03*
X428350Y278850D02*
D03*
X453750D02*
D03*
Y304250D02*
D03*
X428350D02*
D03*
D125*
X211500Y30000D02*
D03*
X593500Y218550D02*
D03*
X453750Y228050D02*
D03*
D126*
X873500Y287750D02*
D03*
X803500D02*
D03*
Y225250D02*
D03*
X838250D02*
D03*
X873500D02*
D03*
D127*
X799750Y489050D02*
D03*
X774350D02*
D03*
X748950D02*
D03*
X723550D02*
D03*
X698150D02*
D03*
X672750D02*
D03*
X647350D02*
D03*
X621950D02*
D03*
X596550D02*
D03*
X571150D02*
D03*
X545750D02*
D03*
X520350D02*
D03*
X494950D02*
D03*
X469550D02*
D03*
Y336650D02*
D03*
X494950D02*
D03*
X520350D02*
D03*
X545750D02*
D03*
X571150D02*
D03*
X596550D02*
D03*
X621950D02*
D03*
X647350D02*
D03*
X672750D02*
D03*
X698150D02*
D03*
X723550D02*
D03*
X748950D02*
D03*
X774350D02*
D03*
X799750D02*
D03*
X800650Y14750D02*
D03*
X775250D02*
D03*
X749850D02*
D03*
X724450D02*
D03*
X699050D02*
D03*
X673650D02*
D03*
X648250D02*
D03*
X622850D02*
D03*
X597450D02*
D03*
X572050D02*
D03*
X546650D02*
D03*
X521250D02*
D03*
X495850D02*
D03*
X470450D02*
D03*
X445050D02*
D03*
X419650D02*
D03*
X394250D02*
D03*
X368850D02*
D03*
X343450D02*
D03*
X318050D02*
D03*
Y167150D02*
D03*
X343450D02*
D03*
X368850D02*
D03*
X394250D02*
D03*
X419650D02*
D03*
X445050D02*
D03*
X470450D02*
D03*
X495850D02*
D03*
X521250D02*
D03*
X546650D02*
D03*
X572050D02*
D03*
X597450D02*
D03*
X622850D02*
D03*
X648250D02*
D03*
X673650D02*
D03*
X699050D02*
D03*
X724450D02*
D03*
X749850D02*
D03*
X775250D02*
D03*
X800650D02*
D03*
D128*
X855250Y40000D02*
D03*
Y470000D02*
D03*
X40000D02*
D03*
Y40000D02*
D03*
M02*
