G04 Layer_Color=16711935*
%FSLAX44Y44*%
%MOMM*%
G71*
G01*
G75*
%ADD64C,0.9000*%
G04:AMPARAMS|DCode=94|XSize=1.15mm|YSize=1.65mm|CornerRadius=0.2mm|HoleSize=0mm|Usage=FLASHONLY|Rotation=180.000|XOffset=0mm|YOffset=0mm|HoleType=Round|Shape=RoundedRectangle|*
%AMROUNDEDRECTD94*
21,1,1.1500,1.2500,0,0,180.0*
21,1,0.7500,1.6500,0,0,180.0*
1,1,0.4000,-0.3750,0.6250*
1,1,0.4000,0.3750,0.6250*
1,1,0.4000,0.3750,-0.6250*
1,1,0.4000,-0.3750,-0.6250*
%
%ADD94ROUNDEDRECTD94*%
%ADD95R,0.8500X1.1500*%
G04:AMPARAMS|DCode=96|XSize=2.35mm|YSize=2.75mm|CornerRadius=0.405mm|HoleSize=0mm|Usage=FLASHONLY|Rotation=270.000|XOffset=0mm|YOffset=0mm|HoleType=Round|Shape=RoundedRectangle|*
%AMROUNDEDRECTD96*
21,1,2.3500,1.9400,0,0,270.0*
21,1,1.5400,2.7500,0,0,270.0*
1,1,0.8100,-0.9700,-0.7700*
1,1,0.8100,-0.9700,0.7700*
1,1,0.8100,0.9700,0.7700*
1,1,0.8100,0.9700,-0.7700*
%
%ADD96ROUNDEDRECTD96*%
G04:AMPARAMS|DCode=97|XSize=1.35mm|YSize=1.85mm|CornerRadius=0.195mm|HoleSize=0mm|Usage=FLASHONLY|Rotation=180.000|XOffset=0mm|YOffset=0mm|HoleType=Round|Shape=RoundedRectangle|*
%AMROUNDEDRECTD97*
21,1,1.3500,1.4600,0,0,180.0*
21,1,0.9600,1.8500,0,0,180.0*
1,1,0.3900,-0.4800,0.7300*
1,1,0.3900,0.4800,0.7300*
1,1,0.3900,0.4800,-0.7300*
1,1,0.3900,-0.4800,-0.7300*
%
%ADD97ROUNDEDRECTD97*%
G04:AMPARAMS|DCode=102|XSize=1.35mm|YSize=1.85mm|CornerRadius=0.195mm|HoleSize=0mm|Usage=FLASHONLY|Rotation=90.000|XOffset=0mm|YOffset=0mm|HoleType=Round|Shape=RoundedRectangle|*
%AMROUNDEDRECTD102*
21,1,1.3500,1.4600,0,0,90.0*
21,1,0.9600,1.8500,0,0,90.0*
1,1,0.3900,0.7300,0.4800*
1,1,0.3900,0.7300,-0.4800*
1,1,0.3900,-0.7300,-0.4800*
1,1,0.3900,-0.7300,0.4800*
%
%ADD102ROUNDEDRECTD102*%
%ADD103R,1.1500X0.8500*%
G04:AMPARAMS|DCode=106|XSize=1.15mm|YSize=1.65mm|CornerRadius=0.2mm|HoleSize=0mm|Usage=FLASHONLY|Rotation=270.000|XOffset=0mm|YOffset=0mm|HoleType=Round|Shape=RoundedRectangle|*
%AMROUNDEDRECTD106*
21,1,1.1500,1.2500,0,0,270.0*
21,1,0.7500,1.6500,0,0,270.0*
1,1,0.4000,-0.6250,-0.3750*
1,1,0.4000,-0.6250,0.3750*
1,1,0.4000,0.6250,0.3750*
1,1,0.4000,0.6250,-0.3750*
%
%ADD106ROUNDEDRECTD106*%
G04:AMPARAMS|DCode=108|XSize=0.75mm|YSize=1.15mm|CornerRadius=0.18mm|HoleSize=0mm|Usage=FLASHONLY|Rotation=90.000|XOffset=0mm|YOffset=0mm|HoleType=Round|Shape=RoundedRectangle|*
%AMROUNDEDRECTD108*
21,1,0.7500,0.7900,0,0,90.0*
21,1,0.3900,1.1500,0,0,90.0*
1,1,0.3600,0.3950,0.1950*
1,1,0.3600,0.3950,-0.1950*
1,1,0.3600,-0.3950,-0.1950*
1,1,0.3600,-0.3950,0.1950*
%
%ADD108ROUNDEDRECTD108*%
%ADD112O,1.3500X0.8500*%
G04:AMPARAMS|DCode=122|XSize=0.75mm|YSize=1.15mm|CornerRadius=0.18mm|HoleSize=0mm|Usage=FLASHONLY|Rotation=0.000|XOffset=0mm|YOffset=0mm|HoleType=Round|Shape=RoundedRectangle|*
%AMROUNDEDRECTD122*
21,1,0.7500,0.7900,0,0,0.0*
21,1,0.3900,1.1500,0,0,0.0*
1,1,0.3600,0.1950,-0.3950*
1,1,0.3600,-0.1950,-0.3950*
1,1,0.3600,-0.1950,0.3950*
1,1,0.3600,0.1950,0.3950*
%
%ADD122ROUNDEDRECTD122*%
%ADD123R,1.7500X1.7500*%
%ADD124C,1.7500*%
%ADD125R,1.7500X1.7500*%
%ADD126O,2.1500X4.1500*%
%ADD127C,1.6500*%
%ADD128C,7.1500*%
G04:AMPARAMS|DCode=129|XSize=1.55mm|YSize=1.35mm|CornerRadius=0.195mm|HoleSize=0mm|Usage=FLASHONLY|Rotation=270.000|XOffset=0mm|YOffset=0mm|HoleType=Round|Shape=RoundedRectangle|*
%AMROUNDEDRECTD129*
21,1,1.5500,0.9600,0,0,270.0*
21,1,1.1600,1.3500,0,0,270.0*
1,1,0.3900,-0.4800,-0.5800*
1,1,0.3900,-0.4800,0.5800*
1,1,0.3900,0.4800,0.5800*
1,1,0.3900,0.4800,-0.5800*
%
%ADD129ROUNDEDRECTD129*%
%ADD130O,1.5500X0.4500*%
%ADD131O,0.4500X1.5500*%
%ADD132O,1.3500X0.7500*%
%ADD133R,1.1500X0.6000*%
%ADD134O,1.1500X0.6000*%
%ADD135O,0.7500X1.6000*%
%ADD136O,1.5500X0.6500*%
G04:AMPARAMS|DCode=137|XSize=0.75mm|YSize=1.05mm|CornerRadius=0.18mm|HoleSize=0mm|Usage=FLASHONLY|Rotation=0.000|XOffset=0mm|YOffset=0mm|HoleType=Round|Shape=RoundedRectangle|*
%AMROUNDEDRECTD137*
21,1,0.7500,0.6900,0,0,0.0*
21,1,0.3900,1.0500,0,0,0.0*
1,1,0.3600,0.1950,-0.3450*
1,1,0.3600,-0.1950,-0.3450*
1,1,0.3600,-0.1950,0.3450*
1,1,0.3600,0.1950,0.3450*
%
%ADD137ROUNDEDRECTD137*%
D64*
X47000Y392000D02*
D03*
Y348000D02*
D03*
D94*
X457500Y396750D02*
D03*
X478500D02*
D03*
X521250Y375250D02*
D03*
X542250D02*
D03*
X495000Y396750D02*
D03*
X516000D02*
D03*
X368750Y34750D02*
D03*
X389750D02*
D03*
X427250D02*
D03*
X406250D02*
D03*
X148500Y66500D02*
D03*
X127500D02*
D03*
X111000D02*
D03*
X90000D02*
D03*
X90250Y164750D02*
D03*
X69250D02*
D03*
X130750Y143250D02*
D03*
X109750D02*
D03*
X162000Y177750D02*
D03*
X141000D02*
D03*
X55250Y215250D02*
D03*
X34250D02*
D03*
X559000Y455500D02*
D03*
X580000D02*
D03*
X773250Y79500D02*
D03*
X752250D02*
D03*
X773250Y385000D02*
D03*
X752250D02*
D03*
X773250Y103000D02*
D03*
X752250D02*
D03*
X773250Y408500D02*
D03*
X752250D02*
D03*
X780250Y225250D02*
D03*
X759250D02*
D03*
X773250Y455500D02*
D03*
X752250D02*
D03*
X773250Y361500D02*
D03*
X752250D02*
D03*
X773250Y432000D02*
D03*
X752250D02*
D03*
X773250Y126500D02*
D03*
X752250D02*
D03*
D95*
X485250Y377750D02*
D03*
X504250D02*
D03*
X494750Y353750D02*
D03*
X109750Y85500D02*
D03*
X90750D02*
D03*
X100250Y109500D02*
D03*
X34750Y196250D02*
D03*
X53750D02*
D03*
X44250Y172250D02*
D03*
X146250Y85500D02*
D03*
X127250D02*
D03*
X136750Y109500D02*
D03*
D96*
X747750Y262000D02*
D03*
Y310000D02*
D03*
D97*
X177750Y480500D02*
D03*
X147250D02*
D03*
X335000Y286000D02*
D03*
X304500D02*
D03*
X121750Y406750D02*
D03*
X152250D02*
D03*
X704250Y78500D02*
D03*
X734750D02*
D03*
X704250Y384000D02*
D03*
X734750D02*
D03*
X704250Y102000D02*
D03*
X734750D02*
D03*
X704250Y407500D02*
D03*
X734750D02*
D03*
X704250Y454500D02*
D03*
X734750D02*
D03*
X704250Y360500D02*
D03*
X734750D02*
D03*
X704250Y431000D02*
D03*
X734750D02*
D03*
X704250Y125500D02*
D03*
X734750D02*
D03*
X515000Y208500D02*
D03*
X484500D02*
D03*
X335250Y313000D02*
D03*
X304750D02*
D03*
X121750Y384500D02*
D03*
X152250D02*
D03*
D102*
X189250Y242000D02*
D03*
Y272500D02*
D03*
X149750Y429000D02*
D03*
Y459500D02*
D03*
X307750Y412250D02*
D03*
Y381750D02*
D03*
X165750Y242000D02*
D03*
Y272500D02*
D03*
X68250Y278500D02*
D03*
Y309000D02*
D03*
X803000Y457000D02*
D03*
Y426500D02*
D03*
X800500Y32500D02*
D03*
Y63000D02*
D03*
X574750Y93500D02*
D03*
Y63000D02*
D03*
X576500Y422500D02*
D03*
Y392000D02*
D03*
X716750Y287500D02*
D03*
Y257000D02*
D03*
X272250Y471000D02*
D03*
Y440500D02*
D03*
X49250Y154750D02*
D03*
Y124250D02*
D03*
X462250Y99000D02*
D03*
Y129500D02*
D03*
X545750Y319000D02*
D03*
Y288500D02*
D03*
D103*
X392750Y73250D02*
D03*
Y54250D02*
D03*
X368750Y63750D02*
D03*
X69250Y126250D02*
D03*
Y145250D02*
D03*
X93250Y135750D02*
D03*
X114750Y197250D02*
D03*
Y216250D02*
D03*
X138750Y206750D02*
D03*
X384000Y219750D02*
D03*
Y238750D02*
D03*
X408000Y229250D02*
D03*
D106*
X249750Y439500D02*
D03*
Y460500D02*
D03*
X206750D02*
D03*
Y439500D02*
D03*
X228250Y460500D02*
D03*
Y439500D02*
D03*
X288500Y53000D02*
D03*
Y32000D02*
D03*
X370750Y494000D02*
D03*
Y473000D02*
D03*
X327750Y494000D02*
D03*
Y473000D02*
D03*
X306250Y494000D02*
D03*
Y473000D02*
D03*
X349250Y494000D02*
D03*
Y473000D02*
D03*
X392250Y494000D02*
D03*
Y473000D02*
D03*
X465750Y353750D02*
D03*
Y374750D02*
D03*
X411750Y53750D02*
D03*
Y74750D02*
D03*
X433250Y74750D02*
D03*
Y53750D02*
D03*
X71250Y106500D02*
D03*
Y85500D02*
D03*
X160250Y196750D02*
D03*
Y217750D02*
D03*
X95750Y217750D02*
D03*
Y196750D02*
D03*
X74250Y217750D02*
D03*
Y196750D02*
D03*
X15250Y219000D02*
D03*
Y198000D02*
D03*
X43250Y310000D02*
D03*
Y289000D02*
D03*
X62250Y336250D02*
D03*
Y357250D02*
D03*
X31750Y336250D02*
D03*
Y357250D02*
D03*
X43250Y272500D02*
D03*
Y251500D02*
D03*
X777750Y256000D02*
D03*
Y277000D02*
D03*
X405500Y276750D02*
D03*
Y255750D02*
D03*
X384000Y293250D02*
D03*
Y314250D02*
D03*
Y255750D02*
D03*
Y276750D02*
D03*
X231750Y34500D02*
D03*
Y55500D02*
D03*
X405500Y314250D02*
D03*
Y293250D02*
D03*
X365000Y218250D02*
D03*
Y239250D02*
D03*
D108*
X179250Y203750D02*
D03*
Y219750D02*
D03*
D112*
X483250Y41050D02*
D03*
Y53750D02*
D03*
Y66450D02*
D03*
Y79150D02*
D03*
Y91850D02*
D03*
Y104550D02*
D03*
Y117250D02*
D03*
Y129950D02*
D03*
X541500Y41050D02*
D03*
Y53750D02*
D03*
Y91850D02*
D03*
Y104550D02*
D03*
Y117250D02*
D03*
Y129950D02*
D03*
D122*
X698750Y305000D02*
D03*
X682750D02*
D03*
X773250Y316000D02*
D03*
X789250D02*
D03*
X306250Y439500D02*
D03*
X290250D02*
D03*
X289750Y273500D02*
D03*
X86250Y310000D02*
D03*
X102250D02*
D03*
D123*
X17350Y95000D02*
D03*
X88200Y234750D02*
D03*
X287600Y257750D02*
D03*
Y219000D02*
D03*
X286000Y16000D02*
D03*
X248950Y221950D02*
D03*
D124*
X42750Y95000D02*
D03*
X62800Y234750D02*
D03*
X313000Y257750D02*
D03*
X338400D02*
D03*
X313000Y219000D02*
D03*
X338400D02*
D03*
X260600Y16000D02*
D03*
X223550Y221950D02*
D03*
Y196550D02*
D03*
X248950D02*
D03*
X211500Y55400D02*
D03*
X568100Y294750D02*
D03*
X593500D02*
D03*
Y269350D02*
D03*
X568100D02*
D03*
X593500Y243950D02*
D03*
X568100D02*
D03*
Y218550D02*
D03*
X428350Y228050D02*
D03*
Y253450D02*
D03*
X453750D02*
D03*
X428350Y278850D02*
D03*
X453750D02*
D03*
Y304250D02*
D03*
X428350D02*
D03*
D125*
X211500Y30000D02*
D03*
X593500Y218550D02*
D03*
X453750Y228050D02*
D03*
D126*
X873500Y287750D02*
D03*
X803500D02*
D03*
Y225250D02*
D03*
X838250D02*
D03*
X873500D02*
D03*
D127*
X799750Y489050D02*
D03*
X774350D02*
D03*
X748950D02*
D03*
X723550D02*
D03*
X698150D02*
D03*
X672750D02*
D03*
X647350D02*
D03*
X621950D02*
D03*
X596550D02*
D03*
X571150D02*
D03*
X545750D02*
D03*
X520350D02*
D03*
X494950D02*
D03*
X469550D02*
D03*
Y336650D02*
D03*
X494950D02*
D03*
X520350D02*
D03*
X545750D02*
D03*
X571150D02*
D03*
X596550D02*
D03*
X621950D02*
D03*
X647350D02*
D03*
X672750D02*
D03*
X698150D02*
D03*
X723550D02*
D03*
X748950D02*
D03*
X774350D02*
D03*
X799750D02*
D03*
X800650Y14750D02*
D03*
X775250D02*
D03*
X749850D02*
D03*
X724450D02*
D03*
X699050D02*
D03*
X673650D02*
D03*
X648250D02*
D03*
X622850D02*
D03*
X597450D02*
D03*
X572050D02*
D03*
X546650D02*
D03*
X521250D02*
D03*
X495850D02*
D03*
X470450D02*
D03*
X445050D02*
D03*
X419650D02*
D03*
X394250D02*
D03*
X368850D02*
D03*
X343450D02*
D03*
X318050D02*
D03*
Y167150D02*
D03*
X343450D02*
D03*
X368850D02*
D03*
X394250D02*
D03*
X419650D02*
D03*
X445050D02*
D03*
X470450D02*
D03*
X495850D02*
D03*
X521250D02*
D03*
X546650D02*
D03*
X572050D02*
D03*
X597450D02*
D03*
X622850D02*
D03*
X648250D02*
D03*
X673650D02*
D03*
X699050D02*
D03*
X724450D02*
D03*
X749850D02*
D03*
X775250D02*
D03*
X800650D02*
D03*
D128*
X855250Y40000D02*
D03*
Y470000D02*
D03*
X40000D02*
D03*
Y40000D02*
D03*
D129*
X186750Y436500D02*
D03*
X170750D02*
D03*
Y458500D02*
D03*
X186750D02*
D03*
D130*
X171750Y386500D02*
D03*
Y381500D02*
D03*
Y376500D02*
D03*
Y371500D02*
D03*
Y366500D02*
D03*
Y361500D02*
D03*
Y356500D02*
D03*
Y351500D02*
D03*
Y346500D02*
D03*
Y341500D02*
D03*
Y336500D02*
D03*
Y331500D02*
D03*
Y326500D02*
D03*
Y321500D02*
D03*
Y316500D02*
D03*
Y311500D02*
D03*
X285750D02*
D03*
Y316500D02*
D03*
Y321500D02*
D03*
Y326500D02*
D03*
Y331500D02*
D03*
Y336500D02*
D03*
Y341500D02*
D03*
Y346500D02*
D03*
Y351500D02*
D03*
Y356500D02*
D03*
Y361500D02*
D03*
Y366500D02*
D03*
Y371500D02*
D03*
Y376500D02*
D03*
Y381500D02*
D03*
Y386500D02*
D03*
D131*
X191250Y292000D02*
D03*
X196250D02*
D03*
X201250D02*
D03*
X206250D02*
D03*
X211250D02*
D03*
X216250D02*
D03*
X221250D02*
D03*
X226250D02*
D03*
X231250D02*
D03*
X236250D02*
D03*
X241250D02*
D03*
X246250D02*
D03*
X251250D02*
D03*
X256250D02*
D03*
X261250D02*
D03*
X266250D02*
D03*
Y406000D02*
D03*
X261250D02*
D03*
X256250D02*
D03*
X251250D02*
D03*
X246250D02*
D03*
X241250D02*
D03*
X236250D02*
D03*
X231250D02*
D03*
X226250D02*
D03*
X221250D02*
D03*
X216250D02*
D03*
X211250D02*
D03*
X206250D02*
D03*
X201250D02*
D03*
X196250D02*
D03*
X191250D02*
D03*
D132*
X541500Y66450D02*
D03*
Y79150D02*
D03*
D133*
X114250Y23000D02*
D03*
Y32500D02*
D03*
Y42000D02*
D03*
X90250D02*
D03*
Y32500D02*
D03*
D134*
Y23000D02*
D03*
D135*
X657400Y286250D02*
D03*
X670100D02*
D03*
X682800D02*
D03*
X695500D02*
D03*
X657400Y231750D02*
D03*
X670100D02*
D03*
X682800D02*
D03*
X695500D02*
D03*
D136*
X663750Y460250D02*
D03*
Y453750D02*
D03*
Y447250D02*
D03*
Y440750D02*
D03*
Y434250D02*
D03*
Y427750D02*
D03*
Y421250D02*
D03*
Y414750D02*
D03*
Y408250D02*
D03*
Y401750D02*
D03*
Y395250D02*
D03*
Y388750D02*
D03*
X604750Y460250D02*
D03*
Y453750D02*
D03*
Y447250D02*
D03*
Y440750D02*
D03*
Y434250D02*
D03*
Y427750D02*
D03*
Y421250D02*
D03*
Y414750D02*
D03*
Y408250D02*
D03*
Y401750D02*
D03*
Y395250D02*
D03*
Y388750D02*
D03*
X663750Y131250D02*
D03*
Y124750D02*
D03*
Y118250D02*
D03*
Y111750D02*
D03*
Y105250D02*
D03*
Y98750D02*
D03*
Y92250D02*
D03*
Y85750D02*
D03*
Y79250D02*
D03*
Y72750D02*
D03*
Y66250D02*
D03*
Y59750D02*
D03*
X604750Y131250D02*
D03*
Y124750D02*
D03*
Y118250D02*
D03*
Y111750D02*
D03*
Y105250D02*
D03*
Y98750D02*
D03*
Y92250D02*
D03*
Y85750D02*
D03*
Y79250D02*
D03*
Y72750D02*
D03*
Y66250D02*
D03*
Y59750D02*
D03*
D137*
X273750Y273500D02*
D03*
M02*
