M48
;Layer_Color=9474304
;FILE_FORMAT=4:4
METRIC,LZ
;TYPE=PLATED
T1F00S00C0.3000
T2F00S00C0.8000
T3F00S00C1.0000
T4F00S00C1.3000
T5F00S00C3.1000
;TYPE=NON_PLATED
T6F00S00C0.9000
%
T01
X00559324Y00030916
X0058425Y0003275
X005845Y0001775
X00628Y0003
X00635524Y00012628
X007135Y000225
X007395
X007655
X00759Y000355
X00772
X00785
X008175Y000225
X00824Y000095
X0048325Y000175
X0045725Y0001825
X0043675Y0002725
X00408Y000095
X00382
X00356
X0033
X00304
Y000355
X00317
X0033
X00356
X002715Y000225
X002455
X002325
X00226Y000095
X00213
X002
X00187
X00174
X00161
X00148
X00239
X00252Y000355
X00135Y000095
X00122
X00109
X00096
X00083
X0007
X000765Y000225
X000895Y00022
X0011275Y000215
X0012525Y00042
X0009469Y0005425
X0010925Y000705
Y0008375
X0009075Y000855
X00083Y001135
X00044
X00018
X00031Y000875
X000115Y000745
X00044Y001395
X00057
X00062Y0015125
X000785Y00179
X0007025Y00195
X000405Y0019875
X0002675Y0019825
X00015Y00209
X00009Y0021525
X000095Y0018175
X0002Y002395
X000185Y0027
X0003115Y002721
X0003125Y0029725
X0001475Y002975
X000115Y002825
X00039Y0032325
X0006325Y0032
X00089004Y00319516
X00094505Y00311765
X00098Y003415
X001055Y0035075
X0012725Y003545
X00127006Y00370268
X0013725Y003775
X0013275Y00394
X0014125Y0040725
X00137684Y00418774
X001345Y00431
X0010175Y0041925
X000945Y0040475
Y003965
Y0038525
X0005675Y00378
Y0037
X0007275Y00346
X00018Y003475
X000115Y003605
X00018Y003735
X000245Y003865
X000115
X00017Y0041525
X000505Y004125
X00044Y004255
X000715Y0041575
X0011575Y002995
X00115Y00285
X0013175Y0028325
X001415Y002825
X00106442Y002721
X00100755Y00251762
X00114506Y00250762
X0012175Y00239
X0013325
X00105426Y00186622
Y0016579
X00123Y001675
X001155Y001005
X000505Y002305
X0014625Y00239
X0016225Y0024575
X001635Y0022975
X001855Y0022925
X00200549Y00222799
X002095Y00211
X0019Y0020475
X0021175Y0018275
X00222Y001765
X00239762Y00169758
X0024675Y0016525
X00254Y0017125
X00267267Y00176966
X0027675Y001685
X00278Y001915
X0027955Y002025
X0029075Y002025
X0030575Y0020075
X00304Y001915
X0031275Y0018725
X0029325Y001845
X00304Y001655
X0030925Y0015325
X003235Y001525
X003365
X003495
X003625
X003755
X0038325Y00154
X00382Y001655
X00356
Y001395
X00343
X00317
X00312Y0011425
X0029075
X00291Y000875
X00304
X00317
X0033
X00330122Y00102128
X003365Y000745
X003495
X003625
X00356Y000615
X003495Y000485
X003365
X003235
X003105
X0029265Y000486
X00304Y000615
X00317
X0033
X003235Y000745
X003105
X002975
X002325
Y001005
X00213Y000875
X002065Y000745
X001675
X00161Y000615
X0015575Y0008675
X00144Y0004575
X002455Y000485
X00240554Y001295
X00252Y001395
X002585Y001525
X0023225Y001565
X0019951Y00157758
X0021251Y00140007
X0016275Y00135
X001715Y0017925
X0015375Y001865
X0024Y00184
X00244Y0024525
X0023975Y002535
X00223511Y00255513
X002235Y0024625
X00226511Y00275263
X0024025Y00274
X00255263Y00271763
X00258757Y00279257
X00251081Y00282377
X00282014Y00283764
X0028175Y0027575
X0029Y00274
X0030425Y0028575
X00316Y0027925
X0031425Y002995
X0034675Y00316931
X0037025Y0031675
X003705Y0030925
X0037775Y0035825
X0039375Y0035275
X0040675Y003515
X00421271Y00352767
X00425Y0036325
X0043925Y00351
X00443246Y00319968
X00455Y0032525
X0047675Y0032225
X0050425Y003195
X00525Y0031975
X0052125Y0030475
X00513Y003015
X0050775Y0028975
X00526026Y00276264
X00497975Y0026575
X0049475Y002515
X00497495Y00244
X00507025Y00237012
X00508525Y00252012
X0051025Y002225
X0052475Y00233
X00534776Y00244762
X00522Y0020025
X00509775Y00195259
X00514275Y00188759
X005245Y0018325
X0049975Y0018125
X0047825Y001765
X00483274Y00192259
X004695Y0019625
X0048475Y00214
X00495024Y0020401
X004925Y001525
X00504Y0015225
X005165Y001555
X0050525Y0013125
X0050573Y00123118
X00511064Y00117149
X004995Y00111
X005055Y001005
X00499Y000875
X004975Y000715
X00509794Y0007915
X0052925Y00085
Y000985
X00531384Y00110164
X00531638Y00117784
X00529Y000545
X005055Y000485
X004925
X004665
X0046Y000615
X004665Y000745
X0046Y000875
X0045825Y00096
X0044275Y0009725
X00438Y001115
X0043588Y001295
X00434Y001395
X00421
X00408
X00395
X00382
X00369
X004015Y001525
X004145
X004275
X004405
X0046975Y001535
X00473Y001395
X0048325Y0009185
X0042575Y00088
X00408Y000875
X00395
X00369
X00356
X003325Y0019025
X00338Y0020175
X0033075Y0023025
X003495Y002305
X00347Y00242
X00364Y0024875
X00386Y0023825
X00402098Y00218114
X004015Y002045
X003885
X00438Y00198
X0046075Y002415
X0046175Y00289
X0042835Y00325302
X0044425Y00386
X00430292Y00400486
X004275Y004125
X0041975Y00415
X004015Y004125
X003875Y0041075
X003927Y00394644
X003665Y00409
X00370856Y00430458
X00432Y0043275
X004775Y0042675
X0049275Y0042375
X0051875Y0042925
X0052825Y004295
X005315Y004125
X00538Y003995
X005315Y003865
Y003605
X005185
X0048225Y0036175
X003365Y003605
X00304265Y00363518
X0027425Y00354
X002545Y0036175
X00241762Y003575
Y00366018
X00225261Y00368768
X0021475Y003665
X0019275
X0019875Y003785
X002065Y003845
X0019901Y00394269
X0018325Y003805
X001705Y0040075
X001675Y004125
X001835Y0041375
X002025Y004245
X0023125Y004236
X00227Y0043
X0024475Y004255
X002655Y004195
X00271542Y00411916
X00283514Y0040527
X002905Y00412
X0031075Y0041175
X0030775Y00426
X00297Y0042975
X0031925Y003935
X0033Y003995
X00273263Y00385269
X0025427Y00388421
X0022975Y0039275
X00202353Y00348862
X0019125Y0034075
X00188992Y00311332
X0019975Y0031175
X00213884Y00324286
X00237252Y00322
X002275Y00312004
X00227854Y00304474
X00257Y003135
Y003295
X00272013Y00316265
X00263263Y00259513
X00259763Y00249012
X003055Y002315
X00345411Y0027625
X0020426Y00274263
X00166508Y00280264
X001665Y0029475
X00172Y0030375
X0015625Y0030175
X0014725Y00321
X00147257Y00366768
X00160508Y00356017
X00176673Y00252658
X00278Y001395
X0054665Y0013785
X00557Y0013
X0055525Y0011525
X00551958Y001061
X0056175Y0010425
X0055875Y0008925
X00552619Y0007915
X00587518Y0007925
X0058575Y00062
X0060475Y0005975
X0061925Y0007275
X0063019Y00065714
X006475Y00066
X0066825Y000635
X00681Y000615
X00694
X00707
X0072
X00733
X0073075Y00041
X00759Y000615
X00772
X00785
X007915Y000745
X00785Y000875
X007915Y001005
X0077325Y00103
X007735Y001265
X007785Y001525
X007395
X007265
X007135
X007005
X0069675Y0014575
X006875Y0011575
X0068475Y0009625
Y0008475
X006485Y001005
X00646Y001105
X00642531Y00136507
X00626Y001285
X0062325Y0011725
X0060475Y0012825
X005965Y001525
X006265Y001485
X00624Y001985
X0063725Y0020525
X00649282Y0020576
X006495Y002165
X00642Y002175
X0064525Y0022775
X006465Y0024425
X006355Y002565
X0066125Y0025527
X00655782Y00265263
X0068675Y0026625
X006965Y00261604
X006955Y0023175
X007265Y002305
X0072325Y0024425
X0072275Y002565
X0072Y002695
X007135Y003085
X0072Y003215
X00689772Y00312856
X00681Y003475
X006745Y003605
X00668Y003735
X006445Y003745
X00629Y003735
X00626Y0038975
X006355Y003865
Y003605
X006225
X006485
Y004125
X006225
X0060475Y0039175
X00595029Y00377018
X0058447Y00374578
X0057775Y00392
X00551Y003995
X005445Y004125
X0054175Y004295
X005584Y00430042
X0059275Y004285
X005705Y003605
X00577Y003475
X005775Y00316
X005995Y0031375
X006165Y00301
X0061603Y00290014
X00606314Y0029025
X0060975Y0027525
X006015Y0025375
X00612Y002445
X0061875Y002365
Y0022575
X0061Y00228
X0061075Y00189
X005835Y0019375
X005835Y001785
X005575
X0055425Y0020775
Y0021975
X00552Y002325
X005405Y0020525
X0058125Y0024875
X005805Y002645
X00668Y002175
X0066675Y00198
X00664Y0018925
X0067925Y001785
X00687823Y00197823
X0070225Y0020375
X007265Y002045
X00721287Y0018025
X007135Y001785
X0074875Y001955
X0075925Y00226
X00772Y002435
X00785
X00779034Y0028625
X00785Y002955
X00824
X008305Y002825
X00824Y002695
X00842Y002725
X0085Y002695
Y002955
Y003215
Y003475
X00824
X00811
X008175Y003345
X00822468Y00326826
X008175Y003085
X008305
X0087425Y0032775
X008695Y003345
X008825
X00876Y003475
X00889
X008825Y003605
X008695
X00863Y003735
X00876
X00889
X008825Y003865
X008695
X008565
X00863Y003995
X0087275Y0041075
X00863Y004255
X0085
X008345Y00431764
X0082475Y0042075
X00837Y0041075
X008045Y004125
X00798Y003995
X00789Y00398
X0077375Y00361
X00785Y003475
X00759
Y003735
X0072
X006875Y003865
X0067825Y0040375
X0069075Y0041575
X00693Y0042575
X0072Y001135
X00629Y000875
X006225Y000485
X0056625Y000455
X00592852Y00101528
X00563Y001405
X00824Y001395
X00837
X0085
X00863
X008565Y001265
X008435
X008305
Y001525
X008435
X008565
Y001785
X00846Y001855
X00876Y001915
Y001655
X00889
X008825Y001525
X00889Y001395
X008825Y001265
X00863Y001135
X0085
X008565Y001005
X0085Y000875
X00863
X008825Y000745
X00889Y000615
X008305Y000745
X008695Y002565
X008825Y004385
X00824Y005035
X007885Y0050225
X00733Y004775
X00707
X00692Y004455
X0067475Y0046225
X006485Y004645
X00649032Y00440522
X00629936Y0044646
X006225Y004385
X00581422Y0044075
X00572786Y00434014
X0054625Y004475
X005445Y004645
X00551Y005035
X00564
X00577
X0059Y004775
X00616
X00634Y0047525
X005315Y004645
X005185
X005055
X004925
X004795
X004665
X00473Y004515
X00486
X00499
X00512
Y005035
X00499
X00486
X00473
X0046
X0043325Y004945
X00432Y004685
X00410988Y00473
X003975Y0046025
X00378
X0036275Y004475
X003625Y004385
X0035333Y00436554
X003475Y004475
X003295Y0044775
Y0046125
X00329016Y00483524
X00339614Y0048384
X0035Y0048325
X00385588Y00482782
X00410988Y00500653
X00421Y004515
X004145Y004385
X004015
X003885
X004455Y0045625
X004665Y004385
X00525Y005035
X00538
X00289Y00488
X00295014Y00466023
X00309765Y00451772
X0025925Y00469131
X00244377Y00471273
X0025175Y0049275
X002325Y004905
X002195
X00199256Y004785
X0019676Y00470023
X00161Y004775
X0014725Y004805
X00245012Y00437521
X0012475Y00437
X0013425Y0045425
X001265Y0047175
X00134Y0048025
X0012075Y004825
X00083Y004775
X000765Y004905
X0007Y005035
X00083
X00096
X00083Y004515
X0007075Y00439
X000115Y004385
T02
X0054665Y0001475
X0057205
X0059745
X0062285
X0064825
X0067365
X0069905
X0072445
X0074985
X0077525
X0080065
X0052125
X0049585
X0047045
X0044505
X0041965
X0039425
X0036885
X0034345
X0031805
Y0016715
X0034345
X0036885
X0039425
X0041965
X0044505
X0047045
X0049585
X0052125
X0052035Y0033665
X0049495
X0046955
X0054575
X0057115
X0059655
X0062195
X0064735
X0067275
X0069815
X0072355
X0074895
X0077435
X0079975
X0080065Y0016715
X0077525
X0074985
X0072445
X0069905
X0067365
X0064825
X0062285
X0059745
X0057205
X0054665
X0054575Y0048905
X0057115
X0059655
X0062195
X0064735
X0067275
X0069815
X0072355
X0074895
X0077435
X0079975
X0052035
X0049495
X0046955
T03
X002115Y0003
X002606Y00016
X00286
X0004275Y00095
X0001735
X000628Y0023475
X000882
X0022355Y0022195
Y0019655
X0024895
Y0022195
X002876Y00219
X00313
X003384
Y0025775
X00313
X002876
X0042835Y0025345
Y0022805
X0045375
Y0025345
Y0027885
X0042835
Y0030425
X0045375
X002115Y000554
X005681Y0021855
Y0024395
Y0026935
Y0029475
X005935
Y0026935
Y0024395
Y0021855
T04
X008035Y0022525
X0083825
X008735
Y0028775
X008035
T05
X0004Y0004
X0085525
Y0047
X0004
T06
X00047Y00348
Y00392
M30
